/* XPM */
static char *result[] = {
/* columns rows colors chars-per-pixel */
"64 64 160 2 ",
"   c #010101",
".  c #070904",
"X  c #0A0D05",
"o  c #070609",
"O  c #08070B",
"+  c #0B0C0B",
"@  c #0D1105",
"#  c #0E110A",
"$  c #101706",
"%  c #131A05",
"&  c #13160E",
"*  c #151B0A",
"=  c #181E0E",
"-  c #0E0C11",
";  c #100E16",
":  c #120F19",
">  c #111011",
",  c #161911",
"<  c #191D13",
"1  c #14111C",
"2  c #1C1C1C",
"3  c #192406",
"4  c #1B2112",
"5  c #25340D",
"6  c #27380B",
"7  c #2C3E0F",
"8  c #252D17",
"9  c #263212",
"0  c #293614",
"q  c #2C3A14",
"w  c #29321A",
"e  c #2E391B",
"r  c #303F15",
"t  c #171320",
"y  c #1A1624",
"u  c #1D1A27",
"i  c #1C1728",
"p  c #1D1929",
"a  c #211C2E",
"s  c #231E31",
"d  c #232224",
"f  c #27262B",
"g  c #2D2D2D",
"h  c #2E3723",
"j  c #333E20",
"k  c #31362A",
"l  c #35392E",
"z  c #262134",
"x  c #282236",
"c  c #2C253C",
"v  c #302C3D",
"b  c gray21",
"n  c #383738",
"m  c #3B3B3B",
"M  c #2F420E",
"N  c #3A540F",
"B  c #344810",
"V  c #384F11",
"C  c #36451A",
"Z  c #37491B",
"A  c #3A4C1B",
"S  c #3F5911",
"D  c #3D521B",
"F  c #3C4B22",
"G  c #3D413B",
"H  c #415B16",
"J  c #435C1B",
"K  c #466614",
"L  c #4D6D17",
"P  c #476218",
"I  c #49651B",
"U  c #527515",
"Y  c #547A16",
"T  c #53741C",
"R  c #567A1A",
"E  c #597D1C",
"W  c #404D27",
"Q  c #414F2B",
"!  c #4A5E26",
"~  c #465231",
"^  c #4A5535",
"/  c #4B5639",
"(  c #4C6521",
")  c #516C24",
"_  c #50662F",
"`  c #547522",
"'  c #5B7C23",
"]  c #58742C",
"[  c #5D7438",
"{  c #607F2B",
"}  c #657C3E",
"|  c #322A45",
" . c #362E4A",
".. c #382F4D",
"X. c #3D3353",
"o. c #413758",
"O. c #44395E",
"+. c #463B60",
"@. c #493E65",
"#. c #434343",
"$. c #4B4B4B",
"%. c #484357",
"&. c #4B455C",
"*. c #545454",
"=. c #595B57",
"-. c #5B5B5B",
";. c #63695A",
":. c #524D61",
">. c gray38",
",. c #6B6D67",
"<. c #686768",
"1. c #696969",
"2. c #69617F",
"3. c #747374",
"4. c gray49",
"5. c #5C8614",
"6. c #5E8916",
"7. c #5C821B",
"8. c #5F8B18",
"9. c #618C17",
"0. c #618E19",
"q. c #639017",
"w. c #65921B",
"e. c #69961B",
"r. c #6B991D",
"t. c #719F1E",
"y. c #72A11F",
"u. c #5D8222",
"i. c #5F822A",
"p. c #618522",
"a. c #668C23",
"s. c #688F24",
"d. c #648529",
"f. c #668A2A",
"g. c #669221",
"h. c #6A9522",
"j. c #6E9C22",
"k. c #6B932C",
"l. c #709B21",
"z. c #749C2A",
"x. c #658431",
"c. c #71A122",
"v. c #72698B",
"b. c #868686",
"n. c #8D8D8D",
"m. c gray59",
"M. c #989A95",
"N. c #9D9D9D",
"B. c #A7A7A7",
"V. c gray70",
"C. c #BBBBBB",
"Z. c #C0C1BF",
"A. c #C4C4C4",
"S. c #CDCDCD",
"D. c #D1D1D1",
"F. c #DEDEDE",
"G. c #E5E5E5",
"H. c #EAEAEA",
"J. c #F5F5F5",
"K. c #FFFFFF",
/* pixels */
"5.5.0.r.w.0.6.e.r.6.5.6.r.q.q.6.e.r.8.5.5.r.q.w.6.w.r.q.5.5.r.w.w.6.0.r.w.5.5.w.e.w.9.9.e.r.5.5.0.r.w.0.6.e.r.6.5.6.r.w.w.5.e.h.",
"6.5.9.w.w.0.5.6.w.6.6.8.e.q.w.5.5.w.8.5.9.w.w.e.5.5.w.0.5.6.0.w.e.6.5.w.0.5.9.0.w.e.9.5.0.q.6.8.8.q.e.q.5.8.q.8.5.0.w.q.e.5.8.w.",
"e.e.e.9.0.8.q.e.r.q.e.r.8.9.6.q.w.t.0.e.r.0.9.6.0.w.r.w.e.r.9.9.9.0.w.t.0.e.e.w.9.6.8.q.r.w.q.e.e.9.9.8.q.e.r.w.e.r.8.8.6.w.e.r.",
"0.r.e.e.w.e.e.j.r.6.h.r.e.e.e.h.r.r.8.e.r.e.e.w.e.e.y.6.e.r.e.r.q.e.w.y.0.w.r.r.r.w.e.e.l.e.0.r.e.e.w.e.r.r.e.6.r.e.e.e.e.e.r.y.",
"0.5.8.r.e.6.5.0.q.9.6.6.e.e.8.5.0.0.0.9.5.e.e.w.5.9.w.0.6.Y M ) e.5.8.q.0.9.A J h.e.6.5.w.0.0.5.9.r.e.8.6.0.0.0.6.8.e.w.8.5.q.q.",
"e.8.8.0.8.8.6.6.e.r.8.8.q.8.8.8.8.q.r.0.8.0.8.0.8.9.0.l.h.T . Q g.9.8.8.l.0.% 8 0.0.8.8.6.r.e.8.8.8.8.0.8.6.w.r.8.8.w.8.8.8.6.q.",
"6.w.6.8.8.w.w.e.8.8.e.8.6.8.w.w.e.0.0.q.0.6.8.0.w.e.w.0.J w   2 j i.e.e.I 9 . @ e R w.w.w.0.0.w.8.8.8.q.q.e.0.8.q.8.6.8.w.q.r.0.",
"e.6.8.q.e.q.5.e.0.e.8.8.8.e.0.5.e.0.e.8.8.8.e.w.5.0.0.s.w       + L 0.e.B     . + _ a.0.e.q.w.6.8.w.e.0.5.e.q.e.8.8.q.h.8.5.e.0.",
"5.0.e.r.e.w.5.5.e.8.9.e.r.e.e.5.5.w.0.5.r.e.r.e.5.5.K w M.N.+ e R 7.5.9.7.) $ n C.1.e E 9.e.5.q.r.r.e.w.5.6.w.9.9.r.r.e.e.5.5.q.",
"0.0.9.0.t.w.0.w.8.6.0.0.8.r.e.9.w.0.9.0.0.9.e.r.9.e.H . C.D.; A c.0.q.w.7.9.% $.K.<.+ d.w.8.9.0.6.9.r.w.9.w.8.9.0.8.0.r.e.9.w.0.",
"5.9.9.0.0.0.w.r.q.5.8.9.q.0.0.9.h.w.9.5.8.w.0.w.9.r.H . C.D.> Z e.6.r.e.9.7.* $.K.<.+ f.e.0.5.9.0.0.w.9.0.r.0.5.8.8.q.0.0.0.r.0.",
"5.5.9.t.w.w.5.w.r.6.5.6.r.w.e.5.0.e.9.5.5.r.w.e.5.w.J . C.D.+ W j.6.6.e.w.u.= $.J.<.> x.e.w.5.5.0.r.e.0.6.w.r.5.5.6.r.e.e.5.w.r.",
"9.9.q.0.0.0.5.9.w.8.8.w.0.9.0.6.9.w.9.9.w.0.9.0.6.9.H O C.D.; ~ h.6.5.w.9.f.< $.K.<.# { 0.w.0.0.w.9.0.9.5.9.w.9.0.w.0.0.0.5.6.e.",
"w.h.r.0.0.8.e.r.r.w.e.r.q.w.9.e.w.t.9.r.r.0.w.9.e.e.( o C.D.> ^ g.q.e.y.q.k.< $.K.1.# d.t.w.w.r.r.0.q.9.e.r.r.w.r.r.9.0.8.e.e.y.",
"6.e.e.e.e.e.w.e.e.6.w.e.e.e.e.w.w.t.9.0.w.e.e.e.w.w.I O C.D.- ^ j.w.w.j.8.p.4 $.J.1.X d.t.q.9.w.w.e.e.e.w.r.w.9.w.w.r.e.e.w.e.r.",
"w.5.6.e.q.6.5.8.0.e.5.5.e.w.6.5.9.0.w.9.5.w.w.9.5.9.H O C.D.- ^ h.5.5.8.e.0.* $.K.<.+ ' 9.q.q.5.0.e.q.6.5.9.0.w.5.6.e.q.6.5.8.9.",
"w.q.8.8.8.w.0.0.e.e.w.8.8.8.q.w.q.w.r.q.0.8.8.0.q.e.S O C.D.+ / h.e.w.w.r.f.* $.K.<.+ d.9.e.w.w.8.9.7.w.w.0.e.e.q.8.8.6.w.w.0.w.",
"0.q.5.8.w.8.8.r.0.8.8.8.5.w.8.8.e.8.8.8.8.6.8.w.6.T Z o C.F.*.;.} [ ) L ` [ & $.J.<.+ u.e.9.9.0.6.8.q.0.8.r.8.8.0.8.6.0.8.8.h.8.",
"q.9.0.e.r.0.5.q.q.e.6.q.w.r.w.5.w.w.e.6.q.w.h.e.Y X   o C.K.K.b.              $.K.<.. U e.w.w.9.q.e.r.0.5.q.q.w.8.q.e.r.q.5.q.w.",
"5.w.e.e.e.w.5.8.w.6.9.e.g.e.e.6.5.w.8.6.e.e.e.i.! =.b o C.K.K.V.-.-.-.-.-.-.=.n.K.N.=.! U w.6.0.g.r.r.w.5.8.w.8.9.e.g.r.e.5.6.w.",
"6.0.6.8.r.w.w.e.6.6.8.8.6.e.e.0.e.8.6.8.8.6.g.e d H.m.o C.K.K.K.K.K.K.K.K.K.K.K.K.K.G.f 0 8.9.0.6.8.r.q.w.e.5.6.0.6.6.e.w.q.r.6.",
"5.6.0.e.0.0.0.r.e.5.6.8.e.0.0.8.r.e.9.6.6.e.w.e d H.A.,.b.B.J.K.K.K.K.K.K.K.K.K.K.K.H.d 0 e.5.5.q.w.q.0.q.h.e.6.6.0.e.0.8.8.r.e.",
"5.5.9.e.e.w.5.9.e.6.5.6.r.w.e.5.8.e.8.5.6.e.g.e d G.K.J.#.g J.K.K.K.K.K.K.K.K.K.K.K.G.d q g.5.5.8.e.e.q.5.q.e.6.5.6.r.w.e.5.8.e.",
"w.q.w.6.9.8.9.0.e.0.0.e.8.9.8.8.8.e.8.0.e.8.0.9 d G.K.K.B.N.J.K.K.K.K.K.K.K.K.K.K.K.H.d q w.q.w.e.6.8.8.8.q.e.8.q.e.8.6.8.8.0.r.",
"w.h.r.e.q.e.h.r.r.9.r.r.w.e.0.e.r.r.9.r.j.w.e.9 d G.K.K.K.K.K.K.K.K.K.K.K.K.K.K.K.K.G.d r w.w.h.r.w.w.w.r.r.e.0.h.r.w.e.q.r.r.y.",
"8.9.9.r.e.q.8.e.e.5.q.q.e.e.e.8.w.e.9.9.8.e.e.0 d G.K.K.K.K.K.K.K.K.K.K.K.K.K.K.K.K.H.d w 0.9.0.0.e.e.w.9.e.w.6.q.q.e.e.w.8.w.e.",
"e.6.8.e.8.6.5.6.q.r.6.6.w.8.8.5.6.0.r.9.6.w.w.5 d G.K.K.K.K.K.K.K.K.K.K.K.K.K.K.K.K.G.d 0 e.w.5.9.w.8.6.5.6.w.r.6.6.w.8.6.6.5.0.",
"8.w.6.8.6.w.w.w.w.q.e.8.6.6.q.w.e.q.w.w.8.6.6.5 d G.K.K.K.F.>.*.*.*.4.J.K.K.K.S.=.=.$.+ 0 g.0.e.8.8.6.w.w.w.w.0.e.8.8.6.q.w.w.0.",
"q.8.5.8.e.8.6.r.8.q.8.6.6.e.8.6.e.9.q.8.8.6.e.9 d G.K.K.K.S.>       b J.K.K.K.V.        0 0.0.0.6.8.e.8.6.r.9.q.8.8.8.g.0.5.e.0.",
"8.9.e.r.e.w.5.8.e.w.6.e.h.e.e.5.6.w.e.5.e.e.r.6 d G.K.K.K.S.+       m J.K.K.K.V.o       w e.0.9.e.r.e.w.5.9.e.q.6.e.e.e.e.5.8.w.",
"9.q.q.e.h.w.8.0.8.9.0.w.q.r.e.8.9.q.8.9.q.q.g.q d G.K.K.K.S.>       m J.K.K.K.V.        0 0.6.0.w.w.r.w.9.9.8.8.0.q.w.e.e.0.0.8.",
"5.0.8.8.e.q.q.r.8.5.8.8.8.w.w.q.r.9.6.8.8.8.g.q d G.K.K.K.S.>       m J.K.K.K.V.o       9 8.6.8.8.8.e.0.w.r.8.6.8.8.8.e.q.q.r.8.",
"5.5.0.r.w.0.6.e.r.5.5.8.r.w.q.6.e.r.8.5.6.r.g.0 d G.K.K.K.D.g 2 2 2 *.J.K.K.K.C.2 2 2   M r.5.5.q.r.q.0.6.e.r.5.5.8.r.w.q.5.e.h.",
"6.5.9.w.w.q.5.6.w.8.5.8.w.q.w.5.5.w.8.5.9.w.0.0 d G.K.K.K.J.F.F.F.F.G.K.K.K.K.J.F.G.S.u 0 w.5.6.8.w.w.w.5.9.q.8.5.0.q.q.e.5.6.e.",
"e.w.r.9.9.9.w.e.e.w.e.r.8.0.8.q.w.r.0.e.r.0.0.C k Z.G.K.K.K.K.K.K.K.K.K.K.K.K.K.K.H.A.l D e.w.e.e.9.6.8.w.e.e.q.e.r.8.8.6.q.q.r.",
"q.h.e.e.w.w.e.r.r.8.e.r.e.e.w.h.e.c.6.e.r.w.e.g.u.< 3.K.K.K.K.K.K.K.K.K.K.K.K.K.K.3.2 ' l.w.0.r.r.e.w.e.e.r.r.8.h.r.e.e.e.r.r.c.",
"9.6.6.r.e.8.5.0.0.0.6.6.e.w.w.5.9.q.0.6.5.e.e.7.P 2 >.A.A.A.A.A.A.A.A.A.A.A.A.A.A.>.9 R q.0.9.6.8.r.e.8.6.q.0.0.6.8.e.w.0.6.9.q.",
"e.0.8.8.8.8.8.6.w.r.9.9.w.6.8.6.8.w.r.9.8.w.8.6 1 2.%.+ + + + + + + + + + + + + + J 0.0.6.r.e.6.0.8.8.0.8.6.e.r.8.6.w.6.8.8.8.q.",
"6.e.6.8.8.w.w.e.0.0.w.8.6.8.w.q.e.w.0.w.0.8.8.N w :.X.a O   : +   - ;   - :   o 1 F Y 0.e.0.8.e.6.8.8.q.q.e.8.8.w.8.8.8.q.w.e.0.",
"q.6.0.q.e.0.5.e.0.w.6.9.q.h.0.5.e.0.w.9.8.8.r.q.E @ v v.i - O.s    . .  s o.- 1 O.p @ Y r.0.w.6.8.q.r.8.5.e.w.w.6.8.q.h.0.5.e.0.",
"6.0.e.h.r.w.5.5.w.0.9.e.r.e.e.5.5.w.w.5.e.e.r.e.7.r G &.x p | s i c c y s c p a | : X U 8.e.6.q.r.r.e.q.5.9.w.9.6.r.r.e.e.5.5.w.",
"9.q.9.0.r.e.q.q.6.9.0.9.8.r.e.9.w.9.6.0.0.0.e.r.0.r.J    .X.  a +.- - O.s   X.|     X E w.6.8.0.9.0.r.w.0.w.8.9.0.8.0.r.e.9.w.9.",
"5.8.8.0.w.0.w.r.w.5.8.0.q.0.0.0.r.w.6.5.6.w.0.w.8.r.J   i z a s z s s s s a z z a - X 7.e.0.5.8.0.0.w.9.0.r.0.5.8.0.0.0.q.8.r.q.",
"5.5.9.r.w.q.5.w.e.5.5.6.r.e.e.5.0.r.9.5.5.r.w.e.5.w.J     - O.z   .. .o z O.- 1 O.p . Y e.e.5.5.0.r.e.0.5.w.r.5.5.6.r.e.w.5.w.r.",
"0.9.w.0.0.0.5.9.w.0.9.w.0.0.0.5.6.w.0.6.w.0.9.q.7.A h z s s s s s s s s s a   1 O.p X U w.0.8.9.0.0.0.0.5.9.w.0.9.w.0.0.q.5.8.e.",
"e.e.r.0.0.0.e.r.r.w.e.r.0.0.9.e.e.t.0.e.r.w.w.9.u.# p @.@.X.  p +.: : +.s     1 +.i X 7.y.w.e.e.r.0.0.0.e.r.r.0.r.r.9.0.8.e.e.c.",
"6.e.w.e.e.e.w.r.e.5.e.w.e.e.e.w.e.r.5.w.w.e.e.e.7.& - p p p c s i c z p -     O i + + E t.w.9.e.q.e.e.e.w.r.w.9.w.w.e.e.e.w.e.r.",
"w.5.9.w.w.5.5.9.0.e.5.5.e.w.6.5.9.0.e.6.5.w.w.0.T +       - O.s    . .              X Y 9.q.0.5.0.e.0.9.5.9.0.w.5.8.e.w.6.5.9.9.",
"w.w.8.8.6.q.w.0.w.e.w.8.0.6.0.w.q.q.h.q.q.8.6.0.u.# 1 | | c t s | p -               + 7.0.e.e.q.9.0.6.w.q.0.e.e.w.8.8.6.q.w.8.w.",
"9.0.6.6.q.0.8.r.0.8.0.8.5.w.8.8.r.9.8.q.8.8.q.8.' # y +.+...o s O.:                 X E r.8.8.q.6.6.0.0.0.e.8.8.0.8.6.0.w.8.h.8.",
"q.6.q.e.r.q.5.w.w.w.6.0.w.h.e.5.0.w.e.6.q.w.r.e.R + o : : y | X.O.:                 X U e.q.q.8.w.e.e.0.5.w.w.w.6.q.e.r.0.5.q.w.",
"6.q.e.h.r.q.5.6.w.8.9.e.e.e.e.5.6.q.8.6.e.g.r.r.R #   o   : o.O.X.-                 X U 8.w.6.q.w.r.r.w.5.8.q.6.9.e.g.r.e.5.6.w.",
"6.0.8.8.r.q.w.e.6.5.9.8.8.e.w.q.r.8.6.0.8.6.q.r.E @ t X.X.| : - -             ; X.t X 7.e.6.8.8.8.8.r.q.w.e.6.6.0.6.6.e.q.q.r.8.",
"5.8.0.e.q.8.0.h.e.6.6.8.e.0.0.8.e.e.8.6.8.r.q.q.Y @ y X.X.|                   : X.f 3 5.h.w.5.6.0.w.q.0.q.h.e.5.6.0.e.0.0.8.r.e.",
"5.5.8.e.e.q.5.0.e.6.5.6.r.e.e.5.8.e.6.5.5.e.e.r.U @   O O o                     - ! 7.5.w.w.5.5.0.e.e.0.5.0.e.8.5.6.r.w.e.5.8.e.",
"0.q.e.8.9.8.8.0.e.8.0.e.6.8.8.8.8.r.8.0.e.8.8.9.R @ X * = @       , < 4 +     . & I 9.6.e.q.q.e.w.9.9.8.9.q.e.8.q.e.8.6.8.8.0.r.",
"e.r.r.w.w.w.e.r.r.9.r.r.e.w.0.r.e.t.8.r.r.w.e.8.7.@ 7 7.0.` X   . ] h.z.F     8 a.0.e.e.c.w.q.h.r.w.w.w.r.r.e.8.h.r.q.e.q.h.r.y.",
"6.0.0.r.w.w.8.e.e.8.0.8.e.e.e.8.w.e.9.9.0.e.e.e.7.5 V 0.0.Y 5 @ . L 9.j.A   < Z h.e.q.8.e.0.9.0.0.e.e.q.9.e.w.8.q.q.e.e.w.8.e.e.",
"e.5.6.w.0.8.5.6.q.r.6.6.e.8.6.5.6.8.r.8.6.e.8.8.5.5.8.r.0.7.w.V   L 6.8.V . T 0.w.8.6.6.6.e.w.5.0.w.0.6.5.6.w.r.6.8.w.8.6.6.6.8.",
"0.w.8.8.6.w.w.q.q.q.e.8.6.6.w.q.e.q.w.w.0.6.8.q.w.e.w.q.w.w.8.K 6 E e.q.I q 7.8.8.8.q.w.w.w.9.e.8.9.6.w.w.w.w.0.e.8.6.6.w.q.w.q.",
"w.6.6.9.e.8.6.r.8.q.8.8.6.e.w.5.e.q.q.8.8.6.e.0.6.w.q.q.0.8.5.w.w.8.0.e.0.0.0.8.q.e.8.8.r.9.0.0.8.0.e.8.6.r.9.q.8.8.8.e.8.6.e.8.",
"9.9.e.r.e.w.5.8.e.q.6.e.h.e.w.5.6.w.e.5.e.e.h.e.5.5.w.e.6.w.e.r.w.9.5.q.e.6.w.w.r.e.0.5.0.e.0.9.w.h.e.q.5.8.e.q.6.e.g.e.e.5.8.w.",
"8.q.0.w.r.w.6.0.w.6.0.q.w.e.e.8.9.0.8.8.q.w.e.r.6.0.w.6.9.w.8.e.r.9.9.0.8.9.0.0.e.r.9.5.0.8.8.0.0.w.r.w.9.9.8.8.9.q.q.r.e.9.0.8.",
"5.8.8.8.r.q.w.e.6.5.0.8.8.w.w.0.r.8.5.8.8.6.q.r.8.r.8.5.0.8.8.0.r.9.e.w.5.6.0.8.8.r.0.e.e.6.8.8.8.8.r.q.w.e.6.6.q.8.6.e.w.q.r.6."
};
