/* XPM */
static char *result[] = {
/* columns rows colors chars-per-pixel */
"64 64 63 1 ",
"  c #628E18",
". c #68971D",
"X c #638F18",
"o c #5B8514",
"O c #608B17",
"+ c #6B981C",
"@ c #659119",
"# c #608C18",
"$ c #618D18",
"% c #68971E",
"& c #618D19",
"* c #5E8916",
"= c #66931A",
"- c #64901A",
"; c #628E19",
": c #648F18",
"> c #5E8816",
", c #6A971B",
"< c #709E1E",
"1 c #628D18",
"2 c #68961D",
"3 c #69981D",
"4 c #65931A",
"5 c #68961B",
"6 c #639019",
"7 c #65921A",
"8 c #649018",
"9 c #5F8A16",
"0 c #68951B",
"q c #65931B",
"w c #5F8A17",
"e c #638F19",
"r c #68961C",
"t c #608D19",
"y c #5F8B18",
"u c #628F19",
"i c #66941A",
"p c #5F8C18",
"a c #67941A",
"s c #618E19",
"d c #5D8714",
"f c #62901A",
"g c #64911A",
"h c #608A16",
"j c #67941C",
"k c #69971C",
"l c #5D8614",
"z c #649019",
"x c #68941A",
"c c #5F8916",
"v c #679319",
"b c #67961D",
"n c #628D17",
"m c #5B8515",
"M c #69961B",
"N c #659219",
"B c #5E8714",
"V c #63901A",
"C c #67951C",
"Z c #69941A",
"A c #5D8715",
"S c #6A991D",
"D c #7F7FFF",
/* pixels */
" .XoO+@#$%XoO+@#$%XoO+@#$%XoO+@#$%XoO+@#$%XoO+@#$%XoO+@#$%XoO+@&",
"*=&O-;:#>=&O-;:#>=&O-;:#>=&O-;:#>=&O-;:#>=&O-;:#>=&O-;:#>=&O-;:#",
",<123@@45<123@@45<123@@45<123@@45<123@@45<123@@45<123@@45<123@@6",
"O789O0q#w789O0q#w789O0q#w789O0q#w789O0q#w789O0q#w789O0q#w789O0qO",
"e;re#tyuu;re#tyuu;re#tyuu;re#tyuu;re#tyuu;re#tyuu;re#tyuu;re#tyu",
"uie$p#q#uae$p#q#uae$p#q#uae$p#q#uae$p#q#uae$p#q#uae$p#q#uae$p#qs",
"dfghj.kXlfghj.kXlfghj.kXlfghj.kXlfghj.kXlfghj.kXlfghj.kXlfghj.kz",
"xzc$ttkuvzc$ttkuvzc$ttkuvzc$ttkuvzc$ttkuvzc$ttkuvzc$ttkuvzc$ttk;",
"ebnmOMN# bnmOMN# bnmOMN# bnmOMN# bnmOMN# bnmOMN# bnmOMN# bnmOM@&",
"*=sO-;:#>=sO-;:#>=sO-;:#>=sO-;:#>=sO-;:#>=sO-;:#>=sO-;:#>=sO-;:#",
",<123@@45<123@@45<123@@45<123@@45<123@@45<123@@45<123@@45<123@@6",
"O789O0q#w789O0q#w789O0q#w789O0q#w789O0q#w789O0q#w789O0q#w789O0qO",
"e;re#tyuu;re#tyuu;re#tyuu;re#tyuu;re#tyuu;re#tyuu;re#tyuu;re#tyu",
"uie$p#q#uae$p#q#uae$p#q#uae$p#q#uae$p#q#uae$p#q#uae$p#q#uae$p#qs",
"dfghj.kXlfghj.kXlfghj.kXlfghj.kXlfghj.kXlfghj.kXlfghj.kXlfghj.kz",
"xzc$ttkuvzc$ttkuvzc$ttkuvzc$ttkuvzc$ttkuvzc$ttkuvzc$ttkuvzc$ttk;",
"ebnmOMN# bnmOMN# bnmOMN# bnmOMN# bnmOMN# bnmOMN# bnmOMN# bnmOM@&",
"*=sO-;:#>=sO-;:#>=sO-;:#>=sO-;:#>=sO-;:#>=sO-;:#>=sO-;:#>=sO-;:#",
",<123@@45<123@@45<123@@45<123@@45<123@@45<123@@45<123@@45<123@@6",
"O789O0q#w789O0q#w789O0q#w789O0q#w789O0q#w789O0q#w789O0q#w789O0qO",
"e;re#tyuu;re#tyuu;re#tyuu;re#tyuu;re#tyuu;re#tyuu;re#tyuu;re#tyu",
"uie$p#q#uae$p#q#uae$p#q#uae$p#q#uae$p#q#uae$p#q#uae$p#q#uae$p#qs",
"dfghj.kXlfghj.kXlfghj.kXlfghj.kXlfghj.kXlfghj.kXlfghj.kXlfghj.kz",
"xzc$ttkuvzc$ttkuvzc$ttkuvzc$ttkuvzc$ttkuvzc$ttkuvzc$ttkuvzc$ttk;",
"ebnmOMN# bnmOMN# bnmOMN# bnmOMN# bnmOMN# bnmOMN# bnmOMN# bnmOM@&",
"*=sO-;:#>=sO-;:#>=sO-;:#>=sO-;:#>=sO-;:#>=sO-;:#>=sO-;:#>=sO-;:#",
",<123@@45<123@@45<123@@45<123@@45<123@@45<123@@45<123@@45<123@@6",
"O789O0q#w789O0q#w789O0q#w789O0q#w789O0q#w789O0q#w789O0q#w789O0qO",
"e;re#tyuu;re#tyuu;re#tyuu;re#tyuu;re#tyuu;re#tyuu;re#tyuu;re#tyu",
"uie$p#q#uae$p#q#uae$p#q#uae$p#q#uae$p#q#uae$p#q#uae$p#q#uae$p#qs",
"dfghj.kXlfghj.kXlfghj.kXlfghj.kXlfghj.kXlfghj.kXlfghj.kXlfghj.kz",
"xzc$ttkuvzc$ttkuvzc$ttkuvzc$ttkuvzc$ttkuvzc$ttkuvzc$ttkuvzc$ttk;",
"ebnmOMN# bnmOMN# bnmOMN# bnmOMN# bnmOMN# bnmOMN# bnmOMN# bnmOM@&",
"*=sO-;:#>=sO-;:#>=sO-;:#>=sO-;:#>=sO-;:#>=sO-;:#>=sO-;:#>=sO-;:#",
",<123@@45<123@@45<123@@45<123@@45<123@@45<123@@45<123@@45<123@@6",
"O789O0q#w789O0q#w789O0q#w789O0q#w789O0q#w789O0q#w789O0q#w789O0qO",
"e;re#tyuu;re#tyuu;re#tyuu;re#tyuu;re#tyuu;re#tyuu;re#tyuu;re#tyu",
"uie$p#q#uae$p#q#uae$p#q#uae$p#q#uae$p#q#uae$p#q#uae$p#q#uae$p#qs",
"dfghj.kXlfghj.kXlfghj.kXlfghj.kXlfghj.kXlfghj.kXlfghj.kXlfghj.kz",
"xzc$ttkuvzc$ttkuvzc$ttkuvzc$ttkuvzc$ttkuvzc$ttkuvzc$ttkuvzc$ttk;",
"ebnmOMN# bnmOMN# bnmOMN# bnmOMN# bnmOMN# bnmOMN# bnmOMN# bnmOM@&",
"*=sO-;:#>=sO-;:#>=sO-;:#>=sO-;:#>=sO-;:#>=sO-;:#>=sO-;:#>=sO-;:#",
",<123@@45<123@@45<123@@45<123@@45<123@@45<123@@45<123@@45<123@@6",
"O789O0q#w789O0q#w789O0q#w789O0q#w789O0q#w789O0q#w789O0q#w789O0qO",
"e;re#tyuu;re#tyuu;re#tyuu;re#tyuu;re#tyuu;re#tyuu;re#tyuu;re#tyu",
"uie$p#q#uae$p#q#uae$p#q#uae$p#q#uae$p#q#uae$p#q#uae$p#q#uae$p#qs",
"dfghj.kXlfghj.kXlfghj.kXlfghj.kXlfghj.kXlfghj.kXlfghj.kXlfghj.kz",
"xzc$ttkuvzc$ttkuvzc$ttkuvzc$ttkuvzc$ttkuvzc$ttkuvzc$ttkuvzc$ttk;",
"ebnmOMN# bnmOMN# bnmOMN# bnmOMN# bnmOMN# bnmOMN# bnmOMN# bnmOM@&",
"*=sO-;:#>=sO-;:#>=sO-;:#>=sO-;:#>=sO-;:#>=sO-;:#>=sO-;:#>=sO-;:#",
",<123@@45<123@@45<123@@45<123@@45<123@@45<123@@45<123@@45<123@@6",
"O789O0q#w789O0q#w789O0q#w789O0q#w789O0q#w789O0q#w789O0q#w789O0qO",
"e;re#tyuu;re#tyuu;re#tyuu;re#tyuu;re#tyuu;re#tyuu;re#tyuu;re#tyu",
"uie$p#q#uae$p#q#uae$p#q#uae$p#q#uae$p#q#uae$p#q#uae$p#q#uae$p#qs",
"dfghj.kXlfghj.kXlfghj.kXlfghj.kXlfghj.kXlfghj.kXlfghj.kXlfghj.kz",
"xzc$ttkuvzc$ttkuvzc$ttkuvzc$ttkuvzc$ttkuvzc$ttkuvzc$ttkuvzc$ttk;",
"ebnmOMN# bnmOMN# bnmOMN# bnmOMN# bnmOMN# bnmOMN# bnmOMN# bnmOM@&",
"*=sO-;:#>=sO-;:#>=sO-;:#>=sO-;:#>=sO-;:#>=sO-;:#>=sO-;:#>=sO-;:#",
",<123@@45<123@@45<123@@45<123@@45<123@@45<123@@45<123@@45<123@@6",
"O789O0q#w789O0q#w789O0q#w789O0q#w789O0q#w789O0q#w789O0q#w789O0qO",
"e;re#tyuu;re#tyuu;re#tyuu;re#tyuu;re#tyuu;re#tyuu;re#tyuu;re#tyu",
"uie$p#q#uae$p#q#uae$p#q#uae$p#q#uae$p#q#uae$p#q#uae$p#q#uae$p#qs",
"BVghC.kXlVghC.kXlVghC.kXlVghC.kXlVghC.kXlVghC.kXlVghC.kXlVghC.kz",
"ZeA ##SeveA ##SeveA ##SeveA ##SeveA ##SeveA ##SeveA ##SeveA ##Su"
};
