/* XPM */
static char *result[] = {
/* columns rows colors chars-per-pixel */
"64 64 204 2 ",
"   c #4A2E19",
".  c #4E321C",
"X  c #5C3616",
"o  c #5E3816",
"O  c #55361E",
"+  c #59371D",
"@  c #56391C",
"#  c #5D3A1C",
"$  c #603717",
"%  c #603917",
"&  c #633C1A",
"*  c #543924",
"=  c #5A3A21",
"-  c #533B2A",
";  c #623E22",
":  c #5D4817",
">  c #5E421A",
",  c #5E4E18",
"<  c #5F5417",
"1  c #5E5C16",
"2  c #5E5418",
"3  c #63441A",
"4  c #6D431D",
"5  c #624B1B",
"6  c #694F1F",
"7  c #74461D",
"8  c #77481E",
"9  c #79491F",
"0  c #63561A",
"q  c #625B19",
"w  c #71501E",
"e  c #5E6017",
"r  c #5F6B1C",
"t  c #5E7919",
"y  c #64651C",
"u  c #676D1D",
"i  c #766C1E",
"p  c #64741D",
"a  c #68771D",
"s  c #627D1B",
"d  c #6B7C1C",
"f  c #73741E",
"g  c #554133",
"h  c #4F573F",
"j  c #565D3D",
"k  c #6C4423",
"l  c #644E24",
"z  c #714620",
"x  c #744A24",
"c  c #7C4C22",
"v  c #764B29",
"b  c #7A4D2A",
"n  c #6B5124",
"m  c #745725",
"M  c #7C5027",
"N  c #7C5229",
"B  c #7C5B2C",
"V  c #7B5B30",
"C  c #5B7B26",
"Z  c #596D35",
"A  c #5D7237",
"S  c #696422",
"D  c #656C21",
"F  c #7B6C22",
"G  c #79682B",
"H  c #657623",
"J  c #6B7321",
"K  c #787624",
"L  c #737C24",
"P  c #7A742B",
"I  c #797C2B",
"U  c #7F7331",
"Y  c #747C37",
"T  c #4C4B4D",
"R  c #4F5247",
"E  c #52544B",
"W  c #4F4C51",
"Q  c #514F53",
"!  c #535154",
"~  c #715441",
"^  c #596344",
"/  c #814E21",
"(  c #865323",
")  c #8C5525",
"_  c #835C24",
"`  c #83542C",
"'  c #89552C",
"]  c #94552D",
"[  c #915A2F",
"{  c #845736",
"}  c #8B5933",
"|  c #925D34",
" . c #9C5C32",
".. c #A05D2C",
"X. c #A15F35",
"o. c #81672E",
"O. c #8B632B",
"+. c #856929",
"@. c #94682E",
"#. c #857426",
"$. c #8A722D",
"%. c #837929",
"&. c #8A7C2B",
"*. c #977A2B",
"=. c #8F6A34",
"-. c #9D6234",
";. c #966B36",
":. c #8A7433",
">. c #837B31",
",. c #8B7E32",
"<. c #977632",
"1. c #9B7A34",
"2. c #A2652E",
"3. c #A4712F",
"4. c #A37A2D",
"5. c #A36236",
"6. c #A86637",
"7. c #A56B34",
"8. c #A56539",
"9. c #AA6639",
"0. c #A3693A",
"q. c #AC6A3C",
"w. c #B56B32",
"e. c #B26C3D",
"r. c #A17436",
"t. c #A77739",
"y. c #AC743B",
"u. c #AD7E3F",
"i. c #B87436",
"p. c #B3713F",
"a. c #C87F3A",
"s. c #D17E3E",
"d. c #855E42",
"f. c #8F6245",
"g. c #9A6440",
"h. c #A46B42",
"j. c #B36F41",
"k. c #AE7541",
"l. c #B57342",
"z. c #BB7542",
"x. c #B47D45",
"c. c #BD7946",
"v. c #B57E48",
"b. c #BE7C49",
"n. c #C17744",
"m. c #C47A46",
"M. c #C87B47",
"N. c #C47D49",
"B. c #C87E49",
"V. c #5C8614",
"C. c #5E8A16",
"Z. c #5E8519",
"A. c #5F8B18",
"S. c #608317",
"D. c #618C17",
"F. c #63851B",
"G. c #6B831D",
"H. c #618E19",
"J. c #6A8C1C",
"K. c #728C1F",
"L. c #629017",
"P. c #65921A",
"I. c #69961C",
"U. c #6B991D",
"Y. c #70911F",
"T. c #719F1E",
"R. c #5E8226",
"E. c #628523",
"W. c #6C8323",
"Q. c #668B24",
"!. c #6D8B23",
"~. c #68882B",
"^. c #748523",
"/. c #7E8523",
"(. c #738D24",
"). c #758C2A",
"_. c #7A8829",
"`. c #7A8B2A",
"'. c #6C9421",
"]. c #729123",
"[. c #7B9227",
"{. c #729B21",
"}. c #73952A",
"|. c #698734",
" X c #778A32",
".X c #7D9830",
"XX c #83842A",
"oX c #86872B",
"OX c #8C8A2E",
"+X c #8C9027",
"@X c #848B33",
"#X c #958534",
"$X c #889631",
"%X c #AC8133",
"&X c #A18A38",
"*X c #988D45",
"=X c #AD8147",
"-X c #B48148",
";X c #BF824A",
":X c #C5824D",
">X c #C8834D",
",X c #C78650",
"<X c #C98651",
"1X c #C98852",
/* pixels */
"P.U.P.V.C.U.P.D.P.U.P.V.C.I.P.C.P.U.H.t t p p H F.~.W.t S.P.H.D.H.U.L.V.L.U.L.D.P.U.P.V.C.U.H.A.P.U.H.V.C.U.P.A.P.U.P.V.C.U.D.H.",
"V.P.A.V.C.I.P.D.V.P.A.V.C.I.P.H.V.P.s : X X o 3 o > > > > 0 q 0 0 q 0 1 e y u u r !.H.V.C.I.I.D.V.P.A.V.C.I.P.D.V.P.A.V.C.I.I.H.",
"H.U.H.P.I.C.C.A.H.U.H.P.I.D.D.H.H.U.q $ X X X X X X # X X X X % $ X $ % % X % $ $ =.'.P.I.C.D.H.P.U.P.P.I.C.C.A.H.U.H.P.I.C.C.C.",
"I.T.A.U.U.I.P.I.I.T.D.U.U.P.P.I.U.].3 X X X X o % X % X X o X X X X X X X X X X k ` >.'.U.P.P.I.I.U.H.I.U.I.P.I.I.T.D.U.U.P.P.I.",
"D.I.H.C.D.I.I.A.C.I.A.C.D.I.I.A.H.y o X o % % % X % X % X % X % % o X X X X % X c k B `.A.I.I.A.D.P.H.C.C.I.I.A.A.I.A.A.D.I.I.A.",
"C.C.U.D.C.P.A.A.C.A.U.C.C.P.A.C.s : X $ % % % % % X % % % % % % % % % % X % % & ` 4 4 :.H.P.A.C.C.D.U.D.C.P.A.A.V.A.U.A.C.P.A.C.",
"I.P.H.P.A.C.C.P.I.P.P.P.A.C.C.P.y X X X X X % X X % % X % X % % % % % % % % % 4 b 7 z N _.A.C.P.P.P.H.P.H.C.C.P.I.P.H.P.H.V.C.I.",
"H.P.P.A.C.H.I.A.D.P.P.A.A.H.I.Z.5 X o o % % X X % X X X X X o X X o % X X X % N z 7 z x o.H.I.A.H.P.P.D.C.H.I.A.A.I.P.A.A.A.I.A.",
"V.P.P.D.I.U.I.D.V.H.P.C.I.I.I.p o X X X & X X X o o X X X % % X X o o X X X o B 4 7 8 4 x oXI.H.V.P.P.C.I.U.I.D.V.L.P.C.I.U.I.H.",
"H.H.C.D.H.P.U.P.D.H.C.D.H.P.I.5 % % X % % % % % o & o % % % % % o X % X % % 4 N 7 7 7 8 4 o.{.P.D.H.C.D.A.P.U.P.D.D.C.D.H.P.U.P.",
"I.P.C.C.A.H.P.A.U.P.C.C.D.H.D $ X % X X X X % % % % % % % o o % % % % % % o N x 8 9 8 8 7 x XXD.I.P.C.D.A.H.P.D.U.P.C.C.A.D.P.A.",
"D.U.D.V.C.U.I.D.D.U.H.V.D.I.5 $ X X X X X X X % o % o X X X X % % % % % o % N 4 8 9 9 8 7 4 { ^.A.U.D.V.A.U.I.D.D.U.D.V.C.U.I.H.",
"V.P.H.C.H.P.H.H.V.P.H.C.H.H & % $ $ $ % % % % X o o X X % X X X % % o o % 7 N 7 8 8 7 8 8 8 x <.F.I.D.C.H.P.H.A.V.P.A.C.H.P.P.A.",
"I.U.P.I.U.D.D.H.P.U.P.I.}.l X X X $ & % X X X # X X o % X X X X X X X X o N 4 4 7 7 8 7 7 8 x o.].U.P.I.U.D.D.H.P.U.P.I.U.D.D.C.",
"I.T.C.P.I.I.I.I.I.U.D.P.).m k 3 & & X & X X % X % X o o X % X X X % o o % ` 4 8 8 8 8 w w a W.'.I.U.C.I.I.I.P.I.I.U.C.I.I.I.I.I.",
"V.H.P.V.V.I.P.C.C.D.P.V.E.`.W.a J V v x x z 4 & & % % o % % X # X % o % 8 N 4 7 3 & 6 s A.U.P.V.V.H.P.V.C.I.P.C.V.P.P.V.C.I.P.V.",
"H.D.U.P.D.H.A.H.D.D.U.P.A.H.A.H.P.r & b G W.P U G G N v k 4 & & $ $ # X B m S D @ 7 m J.A.A.C.A.D.A.U.L.A.P.A.P.A.H.U.P.A.A.C.H.",
"I.I.D.H.A.V.A.P.P.I.H.H.A.C.A.H.I.s & ( K A.P.P.'.'.~.^.L P U G G m x x :.E.P.F.: M _ H.A.V.P.P.I.I.D.H.A.V.A.H.P.I.C.P.C.C.H.P.",
"C.P.I.C.A.P.I.A.D.P.P.D.A.P.I.A.A.H & / L I.I.A.V.P.I.C.A.P.'.H.!.!.).I !.P.I.S.3 / _ F.H.P.I.A.D.P.I.D.H.P.I.D.C.I.P.A.A.P.I.A.",
"V.H.H.D.I.U.I.P.V.H.H.C.I.U.U.P.V.H 3 / P '.I.A.V.P.D.C.I.'.U.L.V.H.P.C.I.I.U.F.3 / _ D.I.U.U.L.V.H.H.C.I.U.U.L.V.A.H.C.I.U.U.P.",
"I.D.C.D.A.A.U.P.P.H.C.D.C.H.U.P.P.s 3 ) 6.3.*.#.,.Y Z A Z C Q.Q.E.F.Z.P.A.A.U.D.5 9 _ J.A.A.U.P.P.H.C.D.C.A.U.H.I.D.C.H.A.A.U.H.",
"I.I.D.C.A.I.P.C.I.I.D.C.A.P.L.A.I.F.3 ) 2.w.w.w.i.~ Q Q W E E E E R h Z W.P.P.A.5 8 ( J.A.P.L.D.I.I.C.C.H.P.P.H.I.I.D.V.A.I.P.A.",
"C.I.H.V.C.U.I.A.V.I.D.V.C.U.I.H.D.S.3 ( i K./.K.%.E W Q ! ! ! ! Q ! Q ~ ;.*.#XK 3 9 _ F.A.U.I.H.C.I.D.V.C.U.I.D.V.I.H.V.C.U.I.H.",
"C.P.H.D.P.A.D.C.C.P.H.H.P.A.D.C.V.G.3 ( f D.D.S.A.A R E T W W Q W W W V w.w.w...& ( -.&.J.A.L.A.C.P.H.H.P.A.D.C.C.P.H.D.P.A.D.C.",
"I.T.P.I.U.L.D.P.I.T.P.U.U.P.D.P.I.Y.3 / f P.H.P.I.T.E.Q.~.Z ^ ^ ^ ^ R j I /.#.#.& ) i.i.3.K.L.L.I.T.P.I.U.L.P.P.I.T.P.I.U.L.P.H.",
"L.U.C.H.P.U.U.P.D.U.C.D.P.I.I.P.L.J.3 9 L I.I.P.L.U.D.L.P.Q.|.P.P.'.A.A.P.U.I.H.5 / ] @.i.+XI.P.P.U.C.D.P.I.I.P.D.U.C.D.P.I.I.P.",
"V.C.U.C.A.P.H.V.V.A.U.C.C.I.H.V.V.S.3 9 f P.P.V.V.A.I.D.A.Q.|.V.Z.A.I.A.A.I.H.V., 9 _ L i.+XL.V.V.A.U.C.C.I.H.V.C.C.I.C.V.I.A.C.",
"I.H.I.P.A.A.A.P.P.H.I.P.A.A.A.P.I.F.3 9 i A.C.P.P.H.I.P.A.R.C P.P.P.P.P.A.A.D.H.< 8 ) ^.%X/.C.L.P.P.P.P.A.A.A.P.P.P.I.P.A.A.C.P.",
"P.P.D.D.C.C.P.A.P.P.D.H.C.C.P.A.P.!.3 9 F V.P.A.P.P.H.A.C.C |.V.P.I.D.D.A.A.P.A.5 8 ( G.4.#XK.H.P.I.A.A.A.V.P.A.L.I.D.D.C.A.P.A.",
"V.P.I.C.P.I.I.A.V.P.I.C.I.I.I.H.V.F.3 / F I.I.D.V.P.I.C.I.Q.~.D.V.P.I.A.P.I.P.D., 7 ( G.4.s.a.%Xf P.I.A.P.I.I.H.V.P.I.A.I.I.I.A.",
"C.D.A.D.P.I.U.P.C.H.D.D.P.P.U.P.D.F., c F P.'.H.D.H.D.D.P.Q.|.I.C.H.A.D.P.I.'.P.< 7 ( d XX*.i.i.$.H.A.D.I.P.U.H.C.H.A.A.P.I.U.P.",
"I.P.C.D.A.A.I.H.I.L.V.H.A.A.I.A.I.!.5 z i A.U.P.I.P.V.H.A.R.|.L.I.P.V.A.A.A.I.H.0 8 ( G.D.D.I.J.(.P.V.D.C.C.U.D.I.P.C.A.A.A.I.A.",
"P.I.H.V.D.I.H.A.P.U.H.V.D.I.P.A.H.'.6 7 F I.H.F.P.'.J.F.J. XY G.J.].!.V.A.I.P.A.2 7 ( d A.I.P.A.P.I.D.V.A.I.L.A.P.I.H.V.D.I.P.H.",
"V.P.A.V.D.P.I.H.V.H.A.V.D.I.P.D.V.'.n 7 O.XX&.<.1.t.7.y.y.f.d.y.k.t.r.<.#XoX_.^.0 7 ( d C.I.I.D.V.P.H.V.C.I.I.D.V.P.D.V.A.P.P.H.",
"H.U.P.P.I.D.D.A.H.U.P.P.I.C.C.A.H.,.0.[ 6.p.j.j.N.c.e.B.:Xh.f.:X:Xe.b.N.z.9.p.p.c 4 ) I U.A.A.D.D.U.P.P.I.C.A.A.H.U.H.P.I.D.D.C.",
"I.T.D.I.U.I.P.I.I.T.D.I.U.I.I.I.oXl.q.6.z.>X<Xm.,Xb.l.v.c.g.f.z.c.l.b.,XB.c.>Xc.z 4 ( ;.*X!.L.I.I.T.A.I.U.I.P.I.I.T.D.U.U.I.P.P.",
"H.P.H.C.C.I.I.A.C.P.H.C.A.I.I.F.0.p.2.e.z.0.} b ; ; = = O * g O + ; ; k b } 0.l.x 7 ( ) j.1.'.A.D.I.H.C.D.I.I.A.C.I.D.C.C.I.I.C.",
"C.A.U.D.A.P.A.C.C.A.U.D.A.P.A.^.x.:Xe.) #         .   O O - g O * + * O O O O ; # 7 ( c } ,X_.A.C.C.U.D.C.P.A.A.C.A.U.A.C.P.A.C.",
"I.P.H.P.A.C.C.P.P.P.H.P.A.A.C.@Xl.c.b.8.b = . * O * = = = - g = + = = = = = = b ` 7 ` -.q.N.:.P.I.P.A.P.A.C.A.P.I.P.H.P.A.A.A.P.",
"H.P.H.H.A.H.I.C.H.I.H.H.A.A.P.`.c.k.5.z.z.c.5.' v k ; = @ - g * O + * + * * k l.z.5.l.b.l.l.XXA.A.P.P.A.A.D.I.C.D.P.P.A.A.A.I.H.",
"V.H.P.V.I.U.I.H.V.H.I.D.I.U.I.@XN.:Xp.p.p.p.p.i.c.x.l.0.-.} } } ' ` { } | | 0.c.l.x.j.5.l.>XOXL.V.P.P.D.I.U.I.D.V.H.P.C.I.U.I.P.",
"P.H.D.D.H.P.U.H.D.H.C.H.H.H.I.}.=X:Xc.m.:X:Xq.l.l.l.l.q.z.z.i.;Xl.j.z.c.x.q.q.l.p.l.b.l.m.>X$XP.D.H.C.D.A.P.U.P.D.H.C.D.H.H.U.H.",
"I.P.D.C.D.D.P.H.I.P.V.A.A.H.P.H. X7.z.m.:X:Xz.m.:X>X:Xy.z.p.c.b.l.7.z.z.;X;Xe.m.m.:X<Xb.m.u.Y.A.I.P.C.C.A.H.P.D.U.P.C.C.A.D.I.A.",
"H.U.D.V.C.U.I.H.H.U.H.V.H.U.I.A.D.O.]  .l.:Xc.:X>X1X<Xz.m.m.>X1X1Xl.m.m.>X>Xz.m.m.:X>Xl.q.I I.A.H.I.H.V.C.U.I.D.D.U.H.V.C.U.I.H.",
"V.P.H.C.H.H.P.D.V.P.A.C.H.H.H.D.V.@. .] ] ]  .q.l.c.:Xz.m.m.<X<X,Xc.m.B.:X:Xz.z.p.q. .8.l.@XP.A.V.H.H.C.H.H.P.A.V.P.A.C.H.P.P.C.",
"I.U.H.I.U.H.H.H.I.T.P.I.U.H.H.H.J.O. . . . . . .]  . . . . .5.5.5. . . .-. . .X.q.l.e.m.B.@XA.H.P.T.P.I.U.D.D.H.I.U.P.I.U.D.H.C.",
"I.T.D.P.I.I.P.I.I.'.D.P.I.I.I.I.J.O.] ]  .q.e.e.9.e.e.e.q.q.e.e.p.y.q.z.b.b.l.m.m.>X:Xm.l.`.U.I.P.T.C.P.I.I.P.I.I.U.C.P.I.I.I.I.",
"V.H.P.V.C.I.P.C.V.H.P.D.D.I.P.V.V.O. .X.5.5.q.q.9.e.p.b.1Xm.M.B.>X>Xm.<X1X1Xb.m.m.m.p.z.;X[.P.C.V.H.P.V.C.I.P.C.C.H.P.C.V.I.P.V.",
"H.H.U.H.A.A.A.P.H.A.U.P.H.A.A.P.H.O.X.9.j.5.X.9.X.e.z.m.B.c.B.:X,Xb.m.B.N.N.z.z.e.e.n.B.:X(.V.D.H.H.U.P.A.H.A.A.P.A.U.L.A.A.A.D.",
"I.P.D.P.A.V.P.A.P.I.D.L.A.V.H.H.Q.@.X.9.j.9.e.e.e.m.l.j.z.z.z.l.q.c.b.c.q.z.n.m.b.m.m.z.b.(.H.P.I.P.D.H.A.V.H.P.P.I.A.P.A.C.H.P.",
"D.P.P.D.A.I.I.D.C.I.I.A.H.P.I.A.F.O. .9.j.9.e.e.z.B.:Xn.M.B.M.m.z.>X1X1Xb.m.m.B.N.m.B.c.l.).I.C.D.P.P.D.A.I.I.D.V.I.P.A.A.P.I.H.",
"V.H.H.D.I.U.U.L.V.A.A.C.I.I.I.P.E.=. . .9.9.e.e.z.B.N.n.M.m.M.m.n.m.<X1Xz.m.m.,X:XB.B.y.l.$XU.L.V.H.H.D.I.I.U.P.V.H.H.C.I.U.I.P.",
"I.D.C.D.C.A.U.H.I.D.C.D.A.A.U.P.'.;.5.5.X.X.9.9.j.M.m.m.B.N.m.m.m.M.<X<Xz.m.B.B.z.j.z.p.b.).U.L.P.H.C.D.C.A.U.D.P.P.C.D.A.A.U.P.",
"I.I.C.C.A.I.P.H.I.I.D.C.A.I.P.A.I.$.-.q.e.e.9.q.e.z.e.j.m.p.z.n.n.n.c.c.q.z.z.q.z.m.M.m.;X).L.A.I.I.C.C.A.I.P.H.I.I.D.V.A.I.P.A.",
"C.I.H.V.C.U.I.D.V.I.D.V.C.U.I.A.V.F  .9.e.e.9.z.n.m.m.n.z.c.e.n.n.n.j.z.m.m.:Xz.B.B.>Xn.;X.XI.A.V.I.H.V.C.U.I.D.V.I.H.V.C.U.I.A.",
"C.P.A.H.P.C.D.C.V.P.H.D.P.A.A.C.V.#.] ] 9.e.j.m.c.M.M.M.>X<Xn.M.m.M.m.m.m.>X,Xb.B.m.,Xm.v.!.L.A.C.P.H.D.P.A.D.C.C.P.H.D.P.A.D.C.",
"U.U.P.U.U.L.P.P.I.T.P.I.U.P.D.P.I.XX .5.9.5.9.z.n.M.M.M.<X,Xm.m.M.B.N.m.m.<X,Xm.:Xz.B.e.k.).L.P.I.T.P.I.U.P.P.P.I.T.L.U.U.H.L.P.",
"L.U.C.H.P.U.I.P.P.U.C.L.P.I.I.P.H.XX .X.e.q.X.j.q.j.z.x.:Xb.z.m.m.<Xb.n.,X,XN.l.l.8.c.z.-X}.I.P.P.U.C.D.P.I.I.P.D.U.C.A.P.I.I.P.",
"C.C.I.C.C.P.H.V.V.A.I.V.C.I.H.V.V.%. .X.9.q.9.z.m.m.c.j.z.z.z.z.9.z.e.z.j.j.z.c.N.c.B.B.-X}.H.V.V.A.U.C.V.I.H.V.V.A.U.C.C.I.D.V.",
"P.P.I.P.A.A.A.P.P.P.I.P.A.A.A.P.I.P  .X.9.e.9.j.z.m.B.m.m.B.>X>Xz.m.B.1XB.c.m.B.<Xc.m.m.=X!.A.P.P.P.P.P.A.A.C.I.I.H.I.P.A.A.C.P.",
"P.P.D.H.A.V.P.A.P.I.H.D.A.A.P.A.P.I.K @.X.q.9.e.j.n.B.n.M.m.>X<Xm.m.:X1X,Xz.M.B.,Xc.m.M.=XF.P.H.A.I.A.A.A.V.P.A.P.I.D.D.C.A.P.A.",
"V.P.I.C.P.I.I.A.V.P.I.A.P.I.I.H.V.P.P.G.$.-.9.e.j.e.c.n.M.m.>X<Xm.M.M.>X,Xm.M.:X1Xc.M.m.OXI.I.D.V.P.I.A.P.I.I.A.V.P.I.C.I.I.I.A.",
"C.P.C.D.P.I.U.L.V.D.A.A.P.I.U.P.D.D.A.A.I.^._.&.<.y.j.e.m.B.>X1X:Xm.M.B.<XB.M.<X1Xk.<.oXI.I.U.L.C.D.A.D.P.I.U.L.V.H.A.A.P.I.U.P.",
"I.D.V.H.A.C.U.D.I.P.V.A.A.V.U.H.I.L.V.H.Z.A.U.H.I.^.+.$.<.t.-X:Xn.m.m.c.x.1.&X#X#X).V.A.A.V.U.L.I.L.V.D.A.C.U.H.I.L.V.A.A.A.U.A."
};
