/* XPM */
static char *result[] = {
/* columns rows colors chars-per-pixel */
"64 64 222 2 ",
"   c #030304",
".  c #04060B",
"X  c #07090C",
"o  c #0A0B0C",
"O  c #060A12",
"+  c #0B0E12",
"@  c #0D1115",
"#  c #0D131B",
"$  c #121314",
"%  c #181C13",
"&  c #12161A",
"*  c #151A1C",
"=  c #1A1C1C",
"-  c #1E241D",
";  c #272F1E",
":  c #151C22",
">  c #1A1D22",
",  c #151C2A",
"<  c #131E2F",
"1  c #1C2124",
"2  c #17252E",
"3  c #1C242B",
"4  c #1B2533",
"5  c #1E2933",
"6  c #232423",
"7  c #262A28",
"8  c #24292B",
"9  c #292C2C",
"0  c #2D3329",
"q  c #34392E",
"w  c #232C34",
"e  c #292E37",
"r  c #222D39",
"t  c #24323B",
"y  c #2A343B",
"u  c #2C3438",
"i  c #323534",
"p  c #353938",
"a  c #3A3C3B",
"s  c #3D4A2C",
"d  c #3F4438",
"f  c #506F1C",
"g  c #47592B",
"h  c #454E34",
"j  c #42453C",
"k  c #475435",
"l  c #515E3C",
"z  c #4C6427",
"x  c #516929",
"c  c #597627",
"v  c #4F6132",
"b  c #556737",
"n  c #5D7535",
"m  c #617E2D",
"M  c #637C37",
"N  c #2A3741",
"B  c #293745",
"V  c #2D3A44",
"C  c #323D43",
"Z  c #333F48",
"A  c #3A4244",
"S  c #33424C",
"D  c #39444A",
"F  c #354552",
"G  c #3A4953",
"H  c #3B4D5A",
"J  c #3C505E",
"K  c #3F5065",
"L  c #424441",
"P  c #464946",
"I  c #444B4C",
"U  c #4C4E4C",
"Y  c #4C5248",
"T  c #565D4C",
"R  c #434D54",
"E  c #4B5254",
"W  c #42535E",
"Q  c #4C565A",
"!  c #515551",
"~  c #565B58",
"^  c #595E5B",
"/  c #5A6549",
"(  c #5D615D",
")  c #647748",
"_  c #666D59",
"`  c #697557",
"'  c #435663",
"]  c #445964",
"[  c #4A5A65",
"{  c #465C6B",
"}  c #4A5E6C",
"|  c #515E63",
" . c #4D626E",
".. c #55656B",
"X. c #4D6372",
"o. c #4F6678",
"O. c #516672",
"+. c #556B77",
"@. c #586B74",
"#. c #556B7A",
"$. c #596E7A",
"%. c #5E7077",
"&. c #5D717D",
"*. c #666D6A",
"=. c #686D6B",
"-. c #6A716B",
";. c #616E71",
":. c #697678",
">. c #757B74",
",. c #5C8614",
"<. c #5E8916",
"1. c #5E851C",
"2. c #5F8B18",
"3. c #618C17",
"4. c #60861F",
"5. c #618D19",
"6. c #65921A",
"7. c #69961C",
"8. c #6B991D",
"9. c #709E1E",
"0. c #71A01E",
"q. c #5D8122",
"w. c #658B23",
"e. c #688D2C",
"r. c #689322",
"t. c #6B9626",
"y. c #698A33",
"u. c #68843A",
"i. c #6F9238",
"p. c #729638",
"a. c #72A020",
"s. c #6D8644",
"d. c #77904E",
"f. c #778957",
"g. c #7A837E",
"h. c #5D7480",
"j. c #627682",
"k. c #647A84",
"l. c #6A7D84",
"z. c #657C8B",
"x. c #6B7D89",
"c. c #667E90",
"v. c #6E8086",
"b. c #6C828B",
"n. c #73868C",
"m. c #76898E",
"M. c #7C8A8C",
"N. c #6C8494",
"B. c #758A94",
"V. c #758B97",
"C. c #7A8D93",
"Z. c #7D9095",
"A. c #7B919D",
"S. c #7F95A0",
"D. c #828983",
"F. c #828D8A",
"G. c #89938D",
"H. c #93998F",
"J. c #829394",
"K. c #8B9693",
"L. c #82959A",
"P. c #86999A",
"I. c #8B9C9C",
"U. c #949D99",
"Y. c #97A29C",
"T. c #879DA5",
"R. c #8DA2A9",
"E. c #94A4A4",
"W. c #9AA6A1",
"Q. c #9CA9A5",
"!. c #93A5AA",
"~. c #97A9AB",
"^. c #9BABAB",
"/. c #9BAEB1",
"(. c #A2ACA5",
"). c #A8B1A5",
"_. c #A2B1AD",
"`. c #ACB4AE",
"'. c #B2B9AE",
"]. c #A5B5B3",
"[. c #A8B8B6",
"{. c #A7B8B9",
"}. c #ACBCBB",
"|. c #B3BDB4",
" X c #B1BFB9",
".X c #AFC0BD",
"XX c #B9C1B5",
"oX c #B4C2BD",
"OX c #BBC5BE",
"+X c #AFC0C1",
"@X c #B4C4C1",
"#X c #B8C7C3",
"$X c #BCCAC4",
"%X c #BECDCA",
"&X c #C2CCC3",
"*X c #C1CFC9",
"=X c #C6D1C7",
"-X c #C5D3CC",
";X c #CAD5CC",
":X c #CBD8CF",
">X c #D3D8C7",
",X c #D4DBCB",
"<X c #CAD6D2",
"1X c #CDDAD2",
"2X c #D3DDD2",
"3X c #D2DED9",
"4X c #DAE0CF",
"5X c #D5E0D4",
"6X c #DCE5D6",
"7X c #D6E3DA",
"8X c #DBE5DB",
"9X c #DDE9DD",
"0X c #E2EBDC",
"qX c #E8F1DF",
"wX c #DEEBE1",
"eX c #E4ECE3",
"rX c #E9EFE4",
"tX c #EBF2E3",
"yX c #E7F2E8",
"uX c #F3FAE6",
"iX c #F6FCE9",
"pX c #FAFEEB",
/* pixels */
"7.6.,.2.2.5.6.3.7.6.,.<.5.5.6.3.7.6.,.<.5.3.6.3.7.6.,.<.5.5.6.2.7.6.<.<.2.5.6.3.7.6.,.<.5.3.6.5.7.6.,.2.3.3.6.2.7.6.,.2.5.3.6.5.",
"5.8.5.,.3.8.6.5.5.7.5.,.3.8.6.2.5.8.5.,.3.8.6.5.5.8.5.,.3.8.6.5.5.8.3.,.3.8.6.5.5.8.5.,.3.8.6.3.5.8.5.,.2.8.6.5.5.7.5.,.3.8.6.5.",
",.6.3.,.5.6.6.2.,.6.5.2.5.5.6.5.<.6.5.,.5.5.6.5.<.6.5.,.5.5.6.2.,.6.3.<.5.5.6.3.,.6.<.<.5.5.6.5.,.6.3.,.5.6.6.5.,.6.5.2.5.5.6.5.",
"6.8.6.7.7.3.3.5.6.8.5.7.8.3.3.5.6.8.5.7.7.5.3.5.6.8.5.7.8.3.3.5.6.8.5.7.8.3.3.5.6.8.6.7.7.5.5.5.6.8.6.7.7.5.3.5.6.8.6.6.8.3.3.3.",
"7.9.3.7.7.7.6.7.7.9.5.6.7.7.6.8.7.9.<.7.7.7.6.7.7.9.3.7.7.7.6.8.6.0.2.7.7.7.6.8.7.9.<.7.7.7.7.7.7.8.3.7.7.7.6.7.7.9.2.7.7.7.7.6.",
",.6.5.2.2.7.6.2.,.5.6.<.<.7.6.<.<.5.6.,.2.7.6.2.<.5.5.<.<.7.6.<.<.5.6.<.<.7.6.<.,.5.6.,.2.7.6.,.,.6.5.3.2.7.6.2.,.5.6.<.2.6.6.<.",
"5.5.8.5.2.5.2.5.5.5.8.6.2.5.2.5.5.5.8.5.5.5.2.5.3.3.8.6.2.5.2.5.5.5.8.5.5.5.2.2.5.5.8.5.3.5.3.3.5.5.8.5.3.5.<.5.5.5.8.5.2.6.2.5.",
"6.6.5.6.2.,.5.6.6.6.2.5.2.<.5.5.6.6.5.5.2.<.5.5.6.6.5.5.2.<.5.5.6.6.5.5.2.<.5.5.6.6.5.6.<.<.5.6.6.6.5.5.2.,.5.6.6.6.2.5.2.,.5.6.",
"5.6.6.3.5.6.7.3.3.6.6.3.3.6.6.5.3.5.7.3.3.5.7.5.3.7.7.5.3.6.7.3.<.6.6.5.3.6.7.3.3.7.6.3.3.5.t.5.3.6.6.3.5.5.7.5.3.6.6.3.3.6.7.5.",
",.5.5.3.6.8.8.5.,.5.5.3.8.8.8.5.3.5.5.3.7.8.7.5.,.5.5.3.7.8.t.e.w.c f f m 6.7.3.,.3.3.3.8.8.7.5.,.5.6.<.8.8.8.3.,.5.5.3.7.8.7.6.",
"7.5.<.5.5.5.8.5.6.5.<.3.2.3.8.6.7.3.3.3.3.5.t.6.6.5.w.y.s.f.f./ j 6 % % 6 0 g b 6.3.3.3.3.3.8.6.6.3.<.5.2.2.8.6.6.5.3.5.2.5.8.5.",
"7.6.3.<.5.5.6.5.7.7.3.<.5.6.5.3.5.7.3.3.3.5.6.5.7.i.` T Y L 9 $     & d U L 6 6 h M 3.3.3.3.6.3.7.7.3.2.5.5.5.5.7.7.3.,.5.6.5.5.",
"3.7.5.,.,.8.7.3.2.7.5.,.<.8.7.5.3.5.3.,.3.9.7.w.) Y 7 $ o o     o q =.U.`.U.( 6 $ j M c 3.9.7.3.<.6.5.,.<.7.7.5.2.6.3.,.<.8.7.5.",
"<.6.5.<.6.3.3.3.,.6.5.5.5.5.5.2.3.7.5.3.3.3.4.) d = = = o       p F.&X6X8X,X'.=.= $ / e.3.3.3.3.<.6.5.3.6.3.3.3.<.6.5.<.6.2.5.<.",
"7.0.5.8.8.6.5.6.7.9.5.8.8.5.5.6.8.9.5.8.8.w.b 9 9 T >.>.j $   $ =.=XrXyXrXrX8X'.U o i ) 9.3.3.6.7.0.5.8.8.6.3.6.7.0.6.8.8.6.5.5.",
"6.8.5.5.6.7.7.6.6.8.3.5.6.7.7.7.5.8.3.3.p./ 6 a >.XX4X>XH.j o 1 H.8XyXyXrXrXrX4XD.= o U y.9.7.7.6.8.5.5.6.7.7.6.6.8.3.3.6.7.7.6.",
",.3.7.<.<.6.6.<.,.5.7.<.<.7.6.,.,.2.7.w._ 8 A H.,XuXpXiX>XD.0 9 U.8X8X3XeXeXeXrX`.a   = j m 4.3.,.3.7.<.<.r.6.,.,.2.6.2.2.6.6.,.",
"6.5.7.6.3.2.<.5.6.5.7.5.5.2.<.6.6.5.8.u.p i H.6XpXpXiXuXqX'.( p K.<X<X%X*X<X3XeXOX! o   $ 9 v w.6.3.7.6.2.<.,.6.6.6.7.6.5.2.2.6.",
"6.6.3.5.2.2.6.5.6.7.5.5.<.<.6.2.6.7.5.l 6 >.4XpXpXuXqX9X4XoX*.D K.%X+X+X{.+X%X<X`.P o & i e 9 k r.6.3.5.<.<.6.5.6.6.2.2.2.2.6.2.",
"<.6.7.<.5.7.7.5.,.6.7.<.6.7.7.2.,.6.w.0 d '.iXiXtX0X2X:X=X[.:.H J.}./.R.R.R.{.#XF.9 * ^ F.>.R e / t.6.3.6.7.7.5.,.6.8.2.6.8.6.5.",
"<.5.5.3.6.7.8.5.,.5.5.<.6.7.8.6.3.5.b = ~ ,XiXqX7X1X*X#X@X/.j.H x.R.L.c.c.A.R./.| : I W.%X#XT.Z u ) 4.3.6.7.8.5.<.5.2.3.6.6.8.5.",
"7.5.<.<.2.2.8.5.7.6.,.5.2.<.8.5.7.i.k & *.,XqX5X-X#X{././.!.j.F  .x.c.c.h.c.c.x.C e x.-XwXwX1XB.w l w.3.<.3.8.5.7.6.,.5.2.2.8.5.",
"6.8.5.<.<.7.6.2.6.7.3.,.2.7.5.2.6.i.j & *.=X2X=X+X/.T.S.S.A.#.B Z h.h.X.{ o.o.Z 4 } }.8XwXyXyX}.D i m ,.3.7.5.3.6.7.5.,.5.7.6.5.",
",.6.3.,.<.8.6.5.,.6.5.,.<.7.7.2.,.y.q @ ~ [.%X.X!.A.N.N.N.N.' , 4 Z Z B B B 4 # < x.*X3X3X7XyX<X:.8 x ,.<.7.7.5.<.5.5.,.<.7.6.5.",
"5.7.6.6.7.5.<.2.5.8.5.6.7.5.2.2.3.y.6 X D E.oX^.A.N.N.N.c.$.N . O & * $ > 8 &   < h./.{.#X<XeXwXI.t z 7.8.5.2.2.5.8.5.6.7.5.3.2.",
"7.0.3.8.8.6.6.7.7.0.<.8.8.6.6.7.7.M =   8 :.~.T.N.N.N.N.#.V +         6 ! -.! * # K c.L.!.*X3XeX_.A s t.8.6.6.7.7.9.3.8.8.6.6.6.",
"3.6.3.<.2.7.7.5.3.7.5.3.5.7.7.5.3.b o   o D :.B.N.N.c.o.B > & +     = ( ).&X).^ , B h.z.A.{.<X8X].A q 4.3.7.6.5.3.6.3.3.3.7.6.5.",
"<.5.8.3.<.6.2.<.<.<.8.3.<.6.<.<.4.h o $ & : A O.z.c.} B e I ~ I > . i U.0XqX6X(.I r { k.c.!.#X<X_.A q 1.3.5.5.2.<.2.8.3.2.6.5.<.",
"7.6.6.6.5.2.2.6.6.6.6.6.5.2.2.6.e.j 0 *.~ p 8 y { [ e y =.(.`.U.Q * I XXtXiXtX>XD.e F h.z.L.{.#XE.V 0 w.3.<.<.6.6.6.5.6.3.2.<.6.",
"5.6.5.3.<.2.7.5.5.6.5.3.<.2.7.2.M j =.|.`.G.Q 7 3 > > ^ |.0XrX,XF.w G |.tXuXtX6X(.Z r o.z.V.~.{.m.w 0 q.<.3.6.2.5.7.5.2.2.2.6.2.",
",.6.6.<.7.8.7.5.,.6.6.3.7.8.7.5.M U U.2X2X=XU.I o   8 F.8XpXpXqXY.S V Q.6X6X0X6X|.E : H h.b.T.J.[ : 9 q.7.8.7.5.,.5.6.<.7.8.7.6.",
"6.3.3.3.5.6.8.5.3.5.<.3.5.6.8.6./ ^ |.8X7X7X&X:.:   C Q.0XtX0X2XY.V N Y.=XOX:X2X XQ O w J O.@.[ 4 . q w.6.6.8.6.5.5.2.5.6.6.8.5.",
"8.5.,.2.5.5.6.5.7.6.,.2.3.5.6.5.l ( oX7X5X9X5XY.y X d ^.5X=XoXoXY.A t I.XXE.].$X^.R X + r S S 3 O   j w.3.5.6.5.7.6.<.2.2.3.6.5.",
"5.8.5.,.5.8.6.2.5.8.5.,.3.8.6.w.k Y `.1X-X1X5X`.Q # t Z.oXQ.P.^.Z.S y J._.m.Z._.M.N . @ V [ R ,     h 1.<.8.7.<.5.7.5.,.3.8.6.5.",
",.6.5.2.5.6.6.<.,.5.2.2.5.5.6.w.d A Y.OXoX%X=XoXg.: 2 g.W.Z.b.Z.m.S t m.S.b.m.Z.X.2 X 7 :.Y.K.E $ o g 3.3.6.6.5.,.6.<.<.5.5.6.3.",
"7.8.6.6.7.2.5.2.6.8.6.7.7.5.2.e.A y M._.].].[..XZ.t 2 ..J.m.b.b.g.S 8 g.A.g.g.%.d + + E ).5X:XK.e o v 7.8.3.<.5.6.9.5.7.7.3.3.5.",
"7.9.3.6.7.7.7.7.7.9.3.6.7.6.7.p.Y w :.I.^.~.E.^.Z.F : W n.v.&.g.+.S ; | b.$. .s &   @ ..oXqX9XXXE @ g 7.7.7.6.7.6.0.2.7.7.7.7.6.",
"<.5.6.<.<.7.6.2.<.5.5.3.2.7.6.i.T 3 ] B.Z.Z.P.T.Z. .2 F &.&.+.+.X.S : G $.] r #     @ Q ^.:X9X=X=.$ z <.,.7.6.<.<.5.6.2.2.7.6.2.",
"3.5.8.5.3.5.2.5.3.5.8.6.5.5.2.7./ > A #.b.b.b.C.Z.+.t w J +.X. .] t # t G t * 1 - @ + S v._.-X&X-.* f 6.3.6.<.5.3.3.8.5.2.5.2.3.",
"7.6.5.5.5.,.3.5.7.6.5.5.2.,.5.5.M 7 3 ] #.$.&.k.b.&.p : S { X. .] t + # - 1 d ;.g.G 1 5  .n.^.Y.U $ z 5.<.,.3.6.6.6.5.5.2.<.5.6.",
"3.6.6.3.3.6.7.2.3.6.6.3.3.6.7.<.y.j $ N [ o.#.#.&.X.y + 3 H  . .J 2 X X % Y K.OX$XM.d t ] $.v.;.8 + x 5.5.6.7.2.3.6.6.3.3.6.7.5.",
",.5.6.3.7.8.7.5.,.5.6.,.7.8.8.3.e._ $ * S X.X.o.] S *   o 5 F H B #   o G U.;X9X9XQ.J B K X.X.F & $ b 2.7.8.7.5.,.5.6.<.7.7.7.6.",
"7.5.3.5.2.3.8.6.6.6.<.5.5.<.8.6.7.f.p   : S ] K y 1 @ o X + 1 3 &   o d J.;X7X7X:XQ.| S ] X. .B # 1 n 6.5.2.9.5.7.5.<.3.2.5.8.5.",
"7.6.3.,.5.6.5.5.7.6.3.,.5.6.5.5.7.p./ $ . 1 S y * 7 Y Q a : X .     : O..X1X1X:XOXI. .S {  .H 5 + s 2.<.5.6.5.3.7.6.3.<.5.6.5.5.",
"2.6.3.,.<.8.7.3.<.6.5.,.3.8.7.3.2.7.y.q   o * * 6 -.Q._.K.[ 3 o     8 n..XOX#X.X_.J.Q S K ] N # * c 5.,.<.7.7.3.2.7.5.,.2.7.7.5.",
"<.6.5.5.6.2.3.2.3.6.5.5.5.3.5.3.,.6.r.) 6 . . @ Y ).=X:X%XI.Q t @   1 %.E./.^.^.E.B.J r A V * X q e.5.3.6.3.3.3.<.6.5.3.6.2.5.3.",
"7.0.5.8.8.6.5.6.7.9.5.8.t.6.5.7.7.9.5.p.T $   % g.%X:X,X;X}.B. .y + * H v.B.Z.C.n.&.F : : & . 6 n a.5.8.8.6.6.6.6.0.5.7.8.6.5.5.",
"6.8.3.5.6.7.7.6.6.8.<.6.6.7.7.6.6.8.3.6.s.j . 1 D.%X-X%XOX].P.x. .1 @ S  .#.&.$.+.X.V @     = b w.8.<.6.6.7.6.6.6.8.<.6.6.7.7.6.",
",.3.7.,.<.7.5.,.,.5.6.<.<.7.5.,.,.5.7.2.w.` = $ *._.[._.~.E.P.m.%.S # 2 K X.X.X.X.{ r .   = v ,.,.3.7.2.2.6.6.,.,.5.7.<.<.6.6.,.",
"6.6.7.6.5.5.<.6.6.5.8.6.5.2.<.6.6.6.7.6.5.u.a $ C l.J.L.J.Z.C.v.&.W 2 : F { } } { H ,   + g 4.6.6.6.7.5.5.2.2.5.6.5.7.6.5.2.2.6.",
"6.6.3.5.<.,.6.5.6.7.<.5.2.2.6.2.6.6.5.5.2.4.` 6 3 ] ;.x.z.k.:.&.&. .t # 2 F J H F 5 O . ; <.6.5.6.6.5.5.2.2.6.3.6.6.5.5.2.2.5.5.",
"<.6.6.3.6.7.8.3.,.6.7.<.5.7.8.5.<.6.6.<.6.7.p.^ > y [ $.&.&.#.$.$. .N O X < 4 4 < # X 7 q.8.7.5.,.6.6.3.6.7.6.5.,.6.6.5.6.7.7.5.",
"<.3.2.3.6.7.8.5.<.5.5.2.6.7.8.r.<.5.2.5.7.r.a.d.U 1 y [ O.+.#.#.@.] 5 .     O O . O u n 6.7.7.5.3.5.2.3.6.7.8.5.<.5.3.3.6.6.8.6.",
"7.6.<.3.2.2.8.5.7.5.,.5.2.2.8.5.7.6.,.5.<.<.8.r.f.j > w S W [ [ W N & . X O O # - s n 3.2.2.8.5.7.5.,.5.2.2.8.5.7.5.,.5.2.2.7.5.",
"6.8.3.,.2.7.6.<.6.7.5.,.<.7.5.2.6.r.5.,.2.8.6.<.6.d.U > : 3 w r 2 # # 6 q s h z q.r.5.,.3.7.6.2.6.8.5.,.3.7.6.2.6.8.5.,.5.7.6.5.",
",.6.5.,.<.6.7.3.,.6.5.,.<.7.7.5.,.6.2.,.<.7.7.2.,.r.d.T i > & & * - s c 1.r.r.5.<.5.2.,.3.6.7.5.,.6.5.,.2.6.7.3.,.6.5.,.<.6.7.5.",
"5.7.6.6.7.5.2.2.5.7.6.6.7.2.<.2.3.8.5.6.7.2.<.2.2.7.6.t.e.c x z f w.5.6.7.2.3.2.5.7.6.6.6.5.3.3.5.8.5.6.7.3.2.2.5.7.5.6.7.5.3.<.",
"7.0.5.7.8.6.6.7.7.0.5.8.8.6.6.7.7.0.3.8.8.6.6.7.8.0.2.7.8.6.6.8.8.0.3.8.8.6.6.6.8.0.3.8.8.6.6.7.7.0.5.7.8.6.6.8.7.0.5.8.8.6.6.6.",
"3.7.<.2.5.7.7.2.5.7.2.<.3.7.7.5.3.7.3.2.3.8.7.5.2.6.5.2.5.7.7.2.5.7.2.3.3.7.8.5.5.6.3.<.3.7.6.5.5.7.3.3.5.7.6.5.5.6.5.3.5.7.7.3.",
"<.2.8.5.<.6.2.<.<.2.8.<.<.6.2.<.<.2.8.<.<.6.2.<.<.5.8.5.<.6.2.<.<.2.8.3.<.6.2.<.,.3.8.3.3.6.5.<.,.3.8.3.<.6.2.<.,.2.8.3.3.6.5.,.",
"7.6.6.6.5.<.2.6.6.6.5.6.5.2.<.6.7.6.5.6.5.2.<.6.6.6.5.6.5.<.<.6.7.5.5.6.5.2.<.5.6.6.5.6.2.2.2.6.6.6.6.6.2.2.2.6.6.6.5.6.3.2.2.6.",
"5.6.5.2.<.5.7.<.5.7.5.2.2.2.7.2.3.6.5.5.<.2.7.<.5.6.5.5.<.5.7.<.5.8.5.5.2.2.7.5.3.7.6.5.2.5.6.3.5.6.5.3.<.5.6.2.5.7.5.5.2.2.6.2.",
",.6.6.<.7.7.7.3.,.5.7.<.7.8.7.5.,.6.7.<.7.8.7.6.<.5.7.<.7.7.7.3.,.5.6.<.7.8.7.5.<.5.6.3.6.8.7.5.,.5.6.3.8.8.7.5.,.5.6.2.6.8.7.6.",
"3.3.5.3.6.6.8.6.<.6.2.5.6.6.8.5.3.5.2.5.5.6.8.5.3.5.5.3.6.7.8.6.3.5.2.5.6.6.8.5.3.5.5.5.5.6.8.6.5.5.3.5.5.6.8.6.5.5.5.5.6.6.8.5."
};
