/* XPM */
static char *result[] = {
/* columns rows colors chars-per-pixel */
"64 64 156 2 ",
"   c #1F1E38",
".  c #241C37",
"X  c #2B1C35",
"o  c #221E39",
"O  c #351C34",
"+  c #262037",
"@  c #25233C",
"#  c #2A253D",
"$  c #2B293E",
"%  c #372136",
"&  c #3B2236",
"*  c #30273C",
"=  c #3E2538",
"-  c #312A3E",
";  c #3F283A",
":  c #402739",
">  c #452B3D",
",  c #4A2D3D",
"<  c #47303E",
"1  c #4A313F",
"2  c #282640",
"3  c #2D2B41",
"4  c #332C43",
"5  c #3A2E45",
"6  c #332E48",
"7  c #2E3144",
"8  c #333245",
"9  c #383145",
"0  c #343349",
"q  c #3A3248",
"w  c #472D41",
"e  c #4B2E40",
"r  c #4C3344",
"t  c #4B3947",
"y  c #4D3548",
"u  c #4D3A49",
"i  c #513346",
"p  c #513B46",
"a  c #523649",
"s  c #533A4C",
"d  c #583A4D",
"f  c #4F3D50",
"g  c #553F51",
"h  c #5A3E51",
"j  c #364447",
"k  c #3A4447",
"l  c #354549",
"z  c #3B4649",
"x  c #364A4B",
"c  c #3B4B4D",
"v  c #3C504F",
"b  c #3C4D51",
"n  c #3C5151",
"m  c #3E575A",
"M  c #3F5A5B",
"N  c #42494E",
"B  c #4F4E4E",
"V  c #55454A",
"C  c #59474C",
"Z  c #564C4E",
"A  c #5A4C4E",
"S  c #4E504E",
"D  c #52514F",
"F  c #424D52",
"G  c #544254",
"H  c #594154",
"J  c #564F52",
"K  c #5B4E51",
"L  c #594759",
"P  c #425155",
"I  c #495056",
"U  c #455559",
"Y  c #4A555B",
"T  c #4A585D",
"R  c #555352",
"E  c #5C5454",
"W  c #5D5957",
"Q  c #54535E",
"!  c #5E5758",
"~  c #5E5958",
"^  c #615656",
"/  c #605957",
"(  c #625758",
")  c #635C5B",
"_  c #66605E",
"`  c #68615F",
"'  c #4A5B60",
"]  c #575660",
"[  c #595762",
"{  c #5C5C64",
"}  c #635D64",
"|  c #656263",
" . c #6A6363",
".. c #64646A",
"X. c #6A666B",
"o. c #666B6C",
"O. c #6C6B6D",
"+. c #706769",
"@. c #716D6E",
"#. c #74706F",
"$. c #676E73",
"%. c #6D6D72",
"&. c #7B6575",
"*. c #716E72",
"=. c #7D6877",
"-. c #7F6B7A",
";. c #6C7070",
":. c #6E7579",
">. c #757575",
",. c #787777",
"<. c #777877",
"1. c #787877",
"2. c #757679",
"3. c #797679",
"4. c #777878",
"5. c #7B7A7B",
"6. c #816D7C",
"7. c #83717F",
"8. c #807D7F",
"9. c #767E81",
"0. c #7E7E80",
"q. c #847584",
"w. c #897787",
"e. c #827D82",
"r. c #887987",
"t. c #847688",
"y. c #8A7788",
"u. c #867C8A",
"i. c #8B7D8B",
"p. c #907F8F",
"a. c #778084",
"s. c #7D8284",
"d. c #7C868A",
"f. c #838285",
"g. c #87828B",
"h. c #8C818E",
"j. c #828A8C",
"k. c #90838F",
"l. c #868491",
"z. c #8E8391",
"x. c #848E91",
"c. c #8F8997",
"v. c #918592",
"b. c #938994",
"n. c #928C99",
"m. c #869497",
"M. c #83929E",
"N. c #8694A1",
"B. c #8996A3",
"V. c #859CA5",
"C. c #8A9AA6",
"Z. c #8D9EA9",
"A. c #919EAA",
"S. c #8EA2AC",
"D. c #91A4AE",
"F. c #92A7B0",
/* pixels */
"v.h.} q m.C.k.v.v.v.z.v.b.X.4 x.S.k.v.v.z.v.z.v.b.*.4 d.S.v.v.v.v.b.%.4 d.S.v.v.v.v.z.v.v.>.4 a.D.c.k.k.v.z.v.h.b.5.4 2.S.c.z.v.",
">.f.&.L S.>.>.>.>.>.>.>.s.-.g D.>.>.>.>.>.>.>.>.5.q.a D.4.>.>.>.>.5.q.s A.4.>.>.>.>.>.>.5.i.i Z.5.>.>.1.>.1.1.>.1.h.i N.s.>.>.>.",
">.1.~ H b.>.>.>.>.>.>.>.5.) s b.>.>.>.>.1.1.>.>.>...u v.1.>.1.>.>.1. .s v.2.>.>.>.5.>.>.>.O.r h.5.>.1.>.>.>.>.>.>.#.t i.5.>.1.>.",
">.>.S ' b.>.>.1.>.1.>.4.@.D U b.>.4.>.>.>.>.>.4.>.E F v.4.>.>.2.1.>.R n v.1.1.>.>.>.>.>.#.W v h.5.>.>.>.>.1.>.>.>.) k i.5.>.>.>.",
"4.>.D Y b.>.2.>.>.>.1.O.` D I b.>.>.>.>.>.>.>.>.>.E s v.>.>.2.>.>.>.E F v.>.1.>.>.>.>.>. .( z v.>.>.>.>.>.>.1.1.>.) r i.5.>.>.>.",
">.@.p g b.5.>.>.>.>.@.| >.V s b.5.5.5.4.>.1.>.>.#.Z b z.0.4.4.4.>.>.K r v.8.1.>.>.>.#.) >.K e h.f.4.1.5.>.5.>.>.>.! l u.f.5.4.5.",
"E V X 3 *.t.| J E Z R E V O # %.q. .X.| ! ..A E A O @ X.q.O.X.| R C O @ ..q.o.J E J R E Z O o | q.O. ...E ..E A R = . { q.@.o...",
"F r 4 6 w u c 2 o 8 U F y 6 6 5 i a r # o 4 s s c 0 6 5 i , o 7 U i 6 6 5 s b $ o 3 m P a 6 6 q r i a 4   2 s i F 0 4 6 i r . 3 ",
"A.v.b.b.v.v.b.| 8 x.D.k.b.b.b.r.>.b.v.X.4 d.D.b.b.b.v.b.v.%.$ 2.D.v.b.v.v.v.b.*.4 9.D.b.v.b.b.i.>.h.v.3.3 2.D.b.v.v.b.v.b.5.4 X.",
">.3.>.>.>.>.f.=.H D.>.>.>.>.@.}  .>.e.7.s D.>.2.>.3.>.>.5.r.r >.>.2.3.>.1.1.5.r.a S.5.>.>.4.*. . .>.5.i.i C.s.>.3.>.>.4.3.h.i X.",
">.>.>.>.>.2.5.) G b.>.>.>.@.+.k.>.>.5. .s b.>.>.>.>.>.>.5.O.r >.>.>.>.>.>.>.>.O.r v.5.>.>.#. .h.>.>.5.@.r h.5.>.>.>.3.1.>.>.r O.",
">.>.5.>.>.>.#.D T b.>.>.#.+.k.,.>.>.>.R F b.>.3.>.>.>.>.>.W x >.>.>.5.>.>.>.>.E n z.3.>.>. .k.5.>.>.2.( c g.5.>.>.>.>.>.>.) x O.",
">.>.>.>.>.2.*.I Y b.>.>.>.>.1.>.>.3.>.A a v.>.>.3.>.3.2.>.! x >.1.>.>.>.2.4.>.! n z.5.>.>.>.>.>.>.>.1.( e p.5.#.>.1.>.2.>._ x ;.",
"5.5.>.5.>.>.@.Z U b.5.1.1.1.>.>.>.>.>.C a b.>. .>.>.>.>.>.E z 2.5.1.>.1.>.>.>.E c z.5.5.5.1.>.>.>.>.>.^ e i.8. .>.>.>.>.>.( l ;.",
"e. .( X.E E C O $ >.q.O.O...E E E E J O $ *.r.o.E E E E K O @ *.i.O.W X.! ! A & @ X.r.O.O.X.! E E ! E = . ..i.;.W E E E E : o { ",
"N N w @   4 y 3 3 5 i i r # o - a y c 4 3 4 y n b # o - y 3 3 4 u N r # o $ r 3 3 6 a i r $ o # i i c 3 3 6 r b x 3 o # r 4 3 4 ",
"p.v.h.[ 8 j.D.k.v.z.z.v.k.} 4 d.A.v.v.z.v.z.v.z.b.X.$ a.S.v.z.z.v.v.v.X.3 s.S.v.v.v.v.v.k.*.3 2.D.z.v.z.z.z.z.v.v.2.4 %.S.b.z.z.",
"5.>.g.&.L D.>.3.4.1.3.>.f.6.g F.2.3.>.5.4.5.3.>.5.q.s D.5.>.4.5.3.3.5.w.u S.5.>.2.>.3.4.5.i.y Z.0.1.1.5.1.5.5.>.5.h.i B.s.2.2.5.",
">.>.5.( h b.>.>.>.>.>.>.4.} s b.>.>.>.>.>.>.>.>.1.X.i v.1.>.>.>.>.>.>.X.i b.3.>.>.>.>.>.4.@.i v.4.>.>.>.>.>.>.1.>.>.e i.5.>.>.>.",
">.3.>.V H v.>.>.>.>.>.5.>.R I b.>.>.>.>.>.>.>.>.>.! i k.4.>.>.>.>.>.>.E i v.3.>.>.>.>.>.>.~ z h.5.>.>.>.>.>.>.>.>.) 1 i.5.>.>.>.",
">.1.@.B T b.>.>.>.>.>.>.>.Z s b.>.>.>.>.>.1.>.1.>.E c v.1.>.>.>.>.>.>.E b v.3.>.>.>.>.5.>.^ r k.5.>.>.2.>.1.1.>.>.) c g.8.>.>.>.",
">.1.#.B Y b.>.>.>.>.1.4.*.R I b.>.>.>.>.>.2.>.>.>.! P v.>.>.>.>.2.1.>.W F v.>.>.>.>.>.>.>.W c h.>.>.>.>.>.>.>.>.2.) z g.5.>.>.>.",
">.>.>.V d b.>.,.>.>.>.>.>.Z U b.5.4.>.>.>.>.>.1.>.A i v.>. .>.>.>.>.>.A r b.5.1.>.>.>.>.>.E c v.5.>.>.>.>.>.>.>.>.) , i.e.` >.>.",
"^ ) K O 8 8.r.O./ W W ) K O 3 2.g.@.>.O.~ ! ~ ) K & # >.g.@.! ! ^ ^ E & # >.g.O.( ! W ) ! : @ %.h.>.>.O.) ~ ( ~ ^ > + ..h.*./ ! ",
", , > # 2 5 r @ @ 3 v z w @ # 0 N i e 2 . 3 n z e # 2 3 F i > 4 1 e , # # 3 r 2 @ $ x c w 2 2 3 F r e $ @ @ x c , $ # 3 b r e 3 ",
"v.v.q.>.p.k.i.] 3 d.S.h.z.g.p.g.g.p.h.} 3 9.S.l.z.i.p.z.h.h.h.p.p.v.i.*.p.p.i.X.# 2.S.z.h.z.i.i.i.p.p.%.$ $.S.c.p.i.z.i.p.p.p.p.",
"5.5.*. .5.>.f.6.G D.5.5.5.5.5.5.5.>.f.q.g S.5.5.4.5.5.5.5.5.5.5.5.5.>.` 3.5.s.r.a S.9.5.5.5.5.5.5.5.5.v.r C.f.3.5.5.5.5.5.5.4.5.",
">.>.>.@.` >.5.} V c.>.>.>.>.>.>.>.>.3.X.s b.>.>.>.>.>.>.>.>.>.>.>.>.>.>._ >.2.@.i b.>.>.>.>.>.>.>.>.>.>.r z.3.>.>.>.>.>.>.>.>.2.",
">.2.1.>.>.>.>.D Y b.>.>.>.>.>.1.>.2.>.E F v.>.>.2.>.>.>.>.4.>.>.>.>.>.>.>.>.>.~ b v.1.>.>.>.>.>.>.2.>.) z l.5.>.>.>.>.>.>.>.>.2.",
"1.1.>.1.>.>.#.B Y b.>.>.4.>.>.>.>.>.>.R P v.5.>.1.2.>.>.>.>.>.1.1.1.>.1.>.>.>.E b z.5.>.1.5.>.>.>.>.>.~ c g.e.>.4.1.>.1.>.>.>.>.",
">.O.| @.~ ) E % 8 e.i.>.>.@.| @.) ) ^ = 3 5.i.>.>.>._ @._ / ) ) >.O._ #.( ) ^ : # >.h.>.>.;.` #.) ) ( > @ %.h.1.;.>._ @._ W ) ( ",
"t x x k , t j . @ 4 i r b x x k , r l + @ 4 u c c x l x x r l $ t c x l , r l # @ 3 i r c c l x 1 1 x # # 3 r c n x x x x r k 7 ",
"i.g.{ 4 s.N.i.r.i.u.r.i.g...7 5.B.i.i.i.u.u.r.g.g.X.3 :.C.g.i.r.i.g.%.3 :.B.g.u.i.u.u.r.i.;.3 $.B.g.i.u.i.u.r.i.u.2.3 ..V.z.i.u.",
"1.f.6.G F.5.5.8.4.5.5.5.0.q.s D.5.4.4.5.5.5.5.4.s.r.a S.s.4.5.5.5.5.i.a Z.s.3.5.5.5.5.1.5.h.a C.s.5.5.5.5.5.4.5.5.z.i M.j.1.5.5.",
">.1.} s b.>.>.>.>.>.>.>.4.X.s v.1.>.>.>.>.>.>.>.3.O.i v.>.>.>.>.>.1.O.r z.1.>.>.>.>.>.>.5.>.r i.4.>.>.>.>.>.>.>.>.>.r r.0.;.>.>.",
">.>.R U v.>.>.>.>.>.>.>.#.R F b.1.>.>.2.>.>.>.1.>.W c h.5.>.1.>.>.>.~ c z.3.>.>.>.>.>.3.>.( x i.5.>.>.1.>.>.>.>.1._ l u.8.>.>.>.",
">.#.D U b.>.>.>.>.>.1.>.) ! F v.>.4.>.>.>.>.>.>.>.E r k.>.>.>.>.>.>.~ b v.3.>.>.>.>.>.>.` / c l.5.>.>.>.>.1.>.>.>.` w t.0.>.>.>.",
">.>.V s b.3.>.>.>.>.#.) >.K s v.4.4.4.4.>.5.1.>.>.E c v.5.>.1.1.>.>.E r k.5.>.>.>.>.>.) >.( , h.0.4.4.1.>.1.>.>.>.) l u.f.1.1.1.",
") K % 4 3.i.O.W ~ W W W K O $ >.i.*.>.X.( O.^ ! ! = # %.i.>.*.O.( E = . *.i.>.! ! ~ / / E : . X.i.*.*.O.) X.) ! ( < . } i.>.@.;.",
"N w # @ 4 u c @ o 3 n N w # # 4 r r r # @ $ r r z # # 4 i 1 @ 3 c e 3 @ 4 r c $ o $ c b e * @ 4 r r i - @ # r r z 3 # 4 r 1 # $ ",
"C.h.z.h.i.i.z.{ 3 9.S.z.i.z.p.r.*.p.k...$ 2.Z.z.h.g.z.i.k.O.+ :.S.v.z.i.i.i.z.%.$ %.S.z.p.h.h.r.*.i.i.>.3 X.Z.c.h.z.g.i.v.3.4 [ ",
"5.5.5.5.5.5.f.7.g F.5.5.5.5.>. . .>.8.q.a D.5.5.5.5.5.5.e.i., >.5.5.5.5.5.5.5.h.a Z.s.4.5.1.>.+.` 3.5.v.r M.j.3.5.5.5.5.5.v.a  .",
">.>.>.>.>.>.5. .s b.>.>.>.O.X.h.>.>.1.O.i b.4.>.>.>.>.>.>.*.r @.>.>.>.>.>.>.>.>.r z.4.2.>.>. .g.>.>.>.>.r i.5.>.>.>.>.>.>.>.r X.",
">.>.>.>.>.2.>.R P v.>.1.>. .k.,.>.1.>.! b v.2.>.2.>.>.>.>.) x >.>.>.2.>.>.>.>.( c z.5.>.>. .i.5.>.>.>._ l i.5.>.>.1.>.>.>. .x X.",
">.>.>.>.>.1.>.D U v.>.>.>.>.5.>.>.>.>.E i v.>.>.>.>.>.4.>.~ x >.>.5.>.>.>.1.>./ c z.5.>.>.>.5.>.>.>.>.) r r.5.>.>.>.1.>.>.` x O.",
"5.1.1.3.>.>.>.D P b.5.>.>.>.>.>.>.>.>.K i b.>.| >.>.>.>.>.! x >.5.>.>.1.>.>.>./ x z.5.>.3.>.>.>.5.>.>.) , i.e. .>.1.>.1.>.` x o.",
"i.O. .O.) ) ^ O 3 5.i.>.>.%.) ) ) ) ! : $ >.h.@.( ) ) ( ^ : # %.h.>.) %.) ) / > @ %.h.>.>.>.( ( ) ) ) , . X.v.>.~ ~ ( ( ) e + | ",
"u z > # @ - , . @ 4 i e r $ + * , 1 z o @ 4 a c x @ # $ , # o 4 r N < 3 @ # , + @ 3 i i e 3 @ # , 1 z # o 3 r c x $ @ # e $ o 2 ",
"i.g.i.[ $ 9.C.i.i.i.i.i.i.{ $ 2.C.i.z.i.i.i.i.i.g...# $.C.l.i.i.i.h.i.X.@ %.C.i.i.r.i.i.i.O.2 ..C.z.i.u.l.i.r.i.z.*.# { C.z.u.i.",
"5.5.f.6.G D.0.5.5.5.5.5.f.q.s S.s.5.5.5.5.0.5.5.u.i.r S.s.5.5.5.5.5.8.i.y S.d.5.5.8.5.5.0.h.y B.j.5.5.5.5.5.0.5.5.v.i M.m.3.5.5.",
">.>.5. .d n.>.>.2.>.>.>.5.O.a n.>.>.>.>.>.>.>.>.>.*.i b.>.>.>.>.>.>.>.*.i c.3.>.2.>.>.>.>.>.i z.5.>.2.>.>.>.>.>.>.3.r r.5.>.2.>.",
">.>.>.J s v.>.>.>.2.>.4.>.E F v.>.>.1.>.2.>.>.>.>.( e v.5.>.>.>.>.>.>.^ r p.3.>.>.2.>.2.>.) c i.5.>.>.>.>.>.>.4.2. ., w.0.>.>.>.",
">.1.@.D I b.>.1.>.1.>.1.>.A s v.>.5.>.>.1.>.>.1.>.! N v.5.>.>.5.>.1.>.W c z.3.>.>.3.>.>.>./ r i.5.>.5.>.>.>.>.>.>.) l u.e.>.>.>.",
">.>.>.R Y b.>.>.>.>.>.>.>.D F v.>.>.>.>.>.>.>.2.>.W c k.>.>.>.>.>.1.>.W c v.5.>.>.>.3.>.>.) z g.5.>.>.>.>.>.>.1.1._ x i.5.>.2.>.",
">.1.>.C s b.>.>.4.>.>.5.>.R P b.1.>.>.>.>.1.5.>.>.^ r b.>._ >.>.>.>.>.! r k.5.>.>.>.>.>.>.) x i.5.>.>.>.>.1.>.>.>._ < w.e. .>.>.",
")  .^ & 9 e.h.#._ ) ) _ ( = 8 5.h.>.>.>.| ) ) ) ( > # >.v.>.) ) ) ) ) > $ 2.v.>.` _ ) _ ) w 2 >.b.3.>.>. .) _ ) ) r X O.v.>.` ) ",
", , : o @ 4 r $ # $ x k : . o 7 F r e 3 # $ x x > . o 3 F r , # , , , . o $ i 4 @ $ l x > . . 2 b r r 4 # # l x < +   2 b t , * ",
"y.i.7.O.t.r.r.Q # :.V.i.r.u.t.t.i.i.q.[ # $.V.g.r.t.u.t.e.w.w.u.y.y.q.%.t.t.q...# ..V.g.r.u.u.t.u.r.w.X.@ { V.l.w.r.u.q.u.w.r.q.",
"8.8.>.+.8.5.g.7.f F.s.5.5.5.8.8.5.5.f.r.u S.f.5.e.e.5.5.e.0.5.e.8.8.5. .8.5.e.h.r C.j.5.0.8.8.5.5.e.e.v.r M.x.5.0.8.8.5.8.5.0.e.",
">.>.>.O.| >.5.X.s n.>.>.>.>.>.>.>.>.4.*.i n.>.>.>.>.>.>.>.>.>.>.>.>.>.@._ >.>.>.i b.3.>.>.>.>.>.>.>.>.3.r z.5.>.>.>.>.>.>.>.>.>.",
">.>.1.>.>.>.>.R F v.1.>.1.1.>.>.>.>.1.W N v.1.>.>.>.>.>.1.>.>.>.>.>.>.>.>.>.>.) c i.5.>.>.1.>.1.>.>.1._ z i.5.>.>.1.1.>.>.>.>.>.",
"1.>.>.1.1.1.#.D U b.>.>.>.>.1.2.>.1.>.R n v.1.>.>.>.4.>.>.1.>.4.>.1.>.>.>.>.>.~ c z.5.>.>.>.>.>.1.>.4.~ x g.0.>.>.>.>.>.>.2.>.3.",
"1.#. .>._ _ ( = 8 f.h.>.>.>. .>._ _ ( > 3 5.h.1.>.>.| >.` _ _ ` 1.>. .>._ _ ) r $ >.v.>.>.>.` >.` _ _ r # %.v.5.>.>.` >. ._ _ _ ",
"t v c z , 1 j . o q d p n c x c , r z . o q s P v n x v x 1 k - u c c c 1 1 k . o 4 s u v n c v 1 1 z @   3 p F n n c v c 1 k 7 "
};
